<?xml version="1.0" encoding="UTF-8"?>
<svg id="Calque_1" data-name="Calque 1" xmlns="http://www.w3.org/2000/svg" viewBox="0 0 713.51 393.63">
  <defs>
    <style>
      .cls-1 {
        fill: #191919;
      }
    </style>
  </defs>
  <g>
    <path class="cls-1" d="M395.35,62.58c0-2.56.46-4.94,1.37-7.14.91-2.19,2.19-4.11,3.82-5.75s3.51-2.91,5.65-3.82c2.14-.91,4.43-1.37,6.87-1.37s4.74.46,6.88,1.37c2.14.91,4.02,2.19,5.64,3.82,1.62,1.64,2.89,3.55,3.81,5.75.91,2.19,1.37,4.57,1.37,7.14s-.46,4.94-1.37,7.14c-.92,2.19-2.18,4.12-3.81,5.77-1.62,1.65-3.5,2.94-5.64,3.86-2.14.92-4.43,1.38-6.88,1.38s-4.74-.46-6.87-1.38-4.02-2.21-5.65-3.86-2.9-3.58-3.82-5.77c-.91-2.19-1.37-4.57-1.37-7.14ZM398.21,62.58c0,2.15.38,4.15,1.15,6,.77,1.86,1.83,3.48,3.19,4.86,1.36,1.39,2.94,2.47,4.74,3.24,1.8.77,3.72,1.16,5.76,1.16s3.96-.39,5.75-1.16c1.79-.77,3.36-1.86,4.72-3.24,1.36-1.39,2.42-3.01,3.18-4.86.76-1.86,1.15-3.85,1.15-6s-.38-4.16-1.15-6c-.77-1.84-1.83-3.45-3.18-4.83s-2.93-2.45-4.72-3.22c-1.79-.77-3.71-1.15-5.75-1.15s-3.97.38-5.76,1.15-3.38,1.84-4.74,3.22c-1.36,1.38-2.43,2.99-3.19,4.83-.77,1.84-1.15,3.84-1.15,6ZM413.71,64.37h-5.44l-.05-3.1h5.07c.7-.02,1.35-.14,1.96-.36.61-.23,1.1-.55,1.47-.98.37-.43.56-.95.56-1.58,0-.81-.14-1.44-.42-1.91-.28-.47-.75-.81-1.41-1.02-.66-.21-1.55-.31-2.68-.31h-3.39v17.45h-3.52v-20.52h6.91c1.65,0,3.07.23,4.27.68s2.12,1.13,2.77,2.04c.65.91.97,2.06.97,3.45,0,.87-.21,1.65-.63,2.35-.41.69-1.02,1.29-1.82,1.79-.8.5-1.77.9-2.92,1.21-.05,0-.1.05-.16.16s-.11.16-.16.16c-.28.16-.46.28-.54.35-.08.07-.15.12-.22.13-.08.02-.28.03-.61.03ZM413.46,64.37l.5-2.18c2.58,0,4.34.53,5.28,1.58s1.41,2.39,1.41,4v1.31c0,.6.03,1.17.1,1.71.07.54.17,1,.32,1.37v.39h-3.62c-.17-.42-.26-1.02-.29-1.79s-.04-1.34-.04-1.69v-1.26c0-1.18-.28-2.05-.84-2.6s-1.5-.83-2.83-.83Z"/>
    <path class="cls-1" d="M410.74,97.67l-12.03,32.11h-4.92l13.85-35.23h3.17l-.07,3.12ZM420.2,116.73v3.82h-20.41v-3.82h20.41ZM420.82,129.78l-12.05-32.11-.08-3.12h3.17l13.9,35.23h-4.94Z"/>
    <path class="cls-1" d="M434.54,107.71v22.07h-4.61v-26.18h4.49l.12,4.11ZM442.98,103.45l-.03,4.16c-.38-.08-.74-.13-1.09-.16s-.73-.04-1.16-.04c-1.06,0-2,.16-2.82.48-.81.32-1.5.77-2.07,1.36s-1.01,1.27-1.34,2.07-.54,1.67-.64,2.63l-1.3.73c0-1.58.16-3.06.49-4.45s.83-2.62,1.51-3.69c.68-1.07,1.55-1.91,2.61-2.52,1.06-.6,2.32-.91,3.78-.91.33,0,.72.04,1.15.11.43.07.73.15.9.23Z"/>
    <path class="cls-1" d="M457.58,126.58c1.1,0,2.11-.22,3.04-.65.93-.44,1.7-1.04,2.3-1.8.6-.77.94-1.64,1.02-2.63h4.39c-.08,1.55-.62,2.99-1.61,4.32-.99,1.33-2.28,2.4-3.88,3.22-1.6.81-3.35,1.22-5.27,1.22-2.03,0-3.8-.35-5.3-1.04-1.5-.69-2.75-1.65-3.74-2.86s-1.73-2.6-2.22-4.17c-.49-1.57-.74-3.24-.74-5v-1.02c0-1.76.25-3.42.74-5,.49-1.57,1.23-2.96,2.22-4.17.99-1.21,2.24-2.16,3.74-2.86,1.51-.69,3.27-1.04,5.3-1.04s3.96.41,5.54,1.25c1.58.83,2.82,1.96,3.73,3.39s1.4,3.05,1.49,4.85h-4.39c-.08-1.08-.4-2.06-.94-2.93-.54-.87-1.27-1.57-2.2-2.09-.92-.52-2-.79-3.23-.79-1.41,0-2.6.27-3.56.81-.96.54-1.71,1.27-2.27,2.18s-.96,1.92-1.2,3.02c-.24,1.11-.36,2.23-.36,3.38v1.02c0,1.15.12,2.27.35,3.39.23,1.11.63,2.12,1.19,3.02.56.9,1.31,1.63,2.27,2.17.95.54,2.15.81,3.58.81Z"/>
    <path class="cls-1" d="M478.13,92.61v37.17h-4.61v-37.17h4.61ZM477.04,115.69l-1.92-.07c.02-1.79.29-3.45.82-4.97.53-1.53,1.28-2.85,2.25-3.98.96-1.13,2.12-2,3.46-2.63,1.34-.62,2.82-.93,4.45-.93,1.33,0,2.53.17,3.59.52,1.06.35,1.98.9,2.73,1.66.76.76,1.34,1.74,1.73,2.94s.6,2.67.6,4.39v17.16h-4.64v-17.2c0-1.37-.21-2.47-.62-3.3-.42-.83-1.02-1.44-1.82-1.82-.8-.38-1.78-.57-2.94-.57s-2.19.23-3.13.7c-.94.47-1.75,1.11-2.42,1.94s-1.2,1.76-1.57,2.82c-.37,1.06-.56,2.17-.56,3.35Z"/>
    <path class="cls-1" d="M501.69,96.65c0-.73.23-1.34.68-1.84.46-.5,1.14-.75,2.03-.75s1.56.25,2.03.75c.47.5.71,1.11.71,1.84s-.24,1.29-.71,1.78c-.47.49-1.15.74-2.03.74s-1.58-.25-2.03-.74-.68-1.09-.68-1.78ZM506.68,103.59v26.18h-4.64v-26.18h4.64Z"/>
    <path class="cls-1" d="M525.39,103.59v3.44h-14.6v-3.44h14.6ZM515.74,97.23h4.62v26.06c0,.89.14,1.56.42,2.01.28.45.65.75,1.1.9.45.15.93.22,1.45.22.38,0,.79-.04,1.21-.11.42-.07.74-.13.96-.18l.03,3.65c-.37.11-.85.22-1.44.33-.59.1-1.3.16-2.13.16-1.13,0-2.17-.22-3.12-.65-.95-.44-1.7-1.17-2.26-2.19s-.84-2.41-.84-4.15v-26.04Z"/>
    <path class="cls-1" d="M542.01,130.26c-1.88,0-3.58-.31-5.1-.93s-2.83-1.5-3.92-2.63c-1.09-1.13-1.93-2.47-2.51-4.02-.58-1.55-.87-3.24-.87-5.08v-1.02c0-2.13.32-4.03.97-5.7.65-1.67,1.53-3.08,2.65-4.25s2.38-2.04,3.79-2.64,2.88-.9,4.39-.9c1.93,0,3.6.32,5,.97,1.41.65,2.56,1.55,3.46,2.7.9,1.15,1.56,2.51,1.99,4.06.43,1.56.65,3.25.65,5.09v2.01h-20.16v-3.65h15.55v-.34c-.07-1.16-.31-2.29-.74-3.39s-1.09-2-2.01-2.71c-.91-.71-2.16-1.06-3.74-1.06-1.05,0-2.01.21-2.89.64-.88.43-1.64,1.06-2.27,1.9-.63.84-1.12,1.86-1.47,3.07s-.52,2.61-.52,4.19v1.02c0,1.24.18,2.41.54,3.5.36,1.09.88,2.05,1.57,2.87s1.53,1.47,2.52,1.94c.99.47,2.12.7,3.38.7,1.63,0,3.01-.32,4.14-.97,1.13-.65,2.12-1.51,2.97-2.59l2.79,2.15c-.58.86-1.32,1.67-2.22,2.44-.9.77-2,1.4-3.3,1.89-1.31.48-2.85.73-4.63.73Z"/>
    <path class="cls-1" d="M568.71,126.58c1.1,0,2.11-.22,3.04-.65.93-.44,1.7-1.04,2.3-1.8.6-.77.94-1.64,1.02-2.63h4.39c-.08,1.55-.62,2.99-1.61,4.32-.99,1.33-2.28,2.4-3.88,3.22-1.6.81-3.35,1.22-5.27,1.22-2.03,0-3.8-.35-5.3-1.04-1.5-.69-2.75-1.65-3.74-2.86s-1.73-2.6-2.22-4.17c-.49-1.57-.74-3.24-.74-5v-1.02c0-1.76.25-3.42.74-5,.49-1.57,1.23-2.96,2.22-4.17.99-1.21,2.24-2.16,3.74-2.86,1.51-.69,3.27-1.04,5.3-1.04s3.96.41,5.54,1.25c1.58.83,2.82,1.96,3.73,3.39s1.4,3.05,1.49,4.85h-4.39c-.08-1.08-.4-2.06-.94-2.93-.54-.87-1.27-1.57-2.2-2.09-.92-.52-2-.79-3.23-.79-1.41,0-2.6.27-3.56.81-.96.54-1.71,1.27-2.27,2.18s-.96,1.92-1.2,3.02c-.24,1.11-.36,2.23-.36,3.38v1.02c0,1.15.12,2.27.35,3.39.23,1.11.63,2.12,1.19,3.02.56.9,1.31,1.63,2.27,2.17.95.54,2.15.81,3.58.81Z"/>
    <path class="cls-1" d="M595.96,103.59v3.44h-14.6v-3.44h14.6ZM586.3,97.23h4.62v26.06c0,.89.14,1.56.42,2.01.28.45.65.75,1.1.9.45.15.93.22,1.45.22.38,0,.79-.04,1.21-.11.42-.07.74-.13.96-.18l.03,3.65c-.37.11-.85.22-1.44.33-.59.1-1.3.16-2.13.16-1.13,0-2.17-.22-3.12-.65-.95-.44-1.7-1.17-2.26-2.19s-.84-2.41-.84-4.15v-26.04Z"/>
    <path class="cls-1" d="M618.76,118.21l1.92-.05c0,1.74-.19,3.35-.56,4.83s-.98,2.75-1.81,3.84c-.83,1.08-1.92,1.92-3.27,2.53s-2.99.91-4.92.91c-1.31,0-2.52-.19-3.61-.56-1.09-.37-2.03-.94-2.81-1.72-.78-.77-1.38-1.78-1.81-3.03-.42-1.24-.64-2.73-.64-4.48v-16.89h4.61v16.94c0,1.18.14,2.15.41,2.92.27.77.65,1.37,1.12,1.82s1.01.75,1.6.93c.59.18,1.2.27,1.83.27,1.96,0,3.52-.37,4.67-1.1s1.97-1.73,2.48-2.98c.51-1.25.76-2.64.76-4.17ZM617.89,123.73v-20.13h4.64v26.18h-4.42l-.23-6.05Z"/>
    <path class="cls-1" d="M634.16,107.71v22.07h-4.61v-26.18h4.49l.12,4.11ZM642.59,103.45l-.03,4.16c-.38-.08-.74-.13-1.09-.16s-.73-.04-1.16-.04c-1.06,0-2,.16-2.82.48-.81.32-1.5.77-2.07,1.36s-1.01,1.27-1.34,2.07-.54,1.67-.64,2.63l-1.3.73c0-1.58.16-3.06.49-4.45s.83-2.62,1.51-3.69c.68-1.07,1.55-1.91,2.61-2.52,1.06-.6,2.32-.91,3.78-.91.33,0,.72.04,1.15.11.43.07.73.15.9.23Z"/>
    <path class="cls-1" d="M657.59,130.26c-1.88,0-3.58-.31-5.1-.93s-2.83-1.5-3.92-2.63c-1.09-1.13-1.93-2.47-2.51-4.02-.58-1.55-.87-3.24-.87-5.08v-1.02c0-2.13.32-4.03.97-5.7.65-1.67,1.53-3.08,2.65-4.25s2.38-2.04,3.79-2.64,2.88-.9,4.39-.9c1.93,0,3.6.32,5,.97,1.41.65,2.56,1.55,3.46,2.7.9,1.15,1.56,2.51,1.99,4.06.43,1.56.65,3.25.65,5.09v2.01h-20.16v-3.65h15.55v-.34c-.07-1.16-.31-2.29-.74-3.39s-1.09-2-2.01-2.71c-.91-.71-2.16-1.06-3.74-1.06-1.05,0-2.01.21-2.89.64-.88.43-1.64,1.06-2.27,1.9-.63.84-1.12,1.86-1.47,3.07s-.52,2.61-.52,4.19v1.02c0,1.24.18,2.41.54,3.5.36,1.09.88,2.05,1.57,2.87s1.53,1.47,2.52,1.94c.99.47,2.12.7,3.38.7,1.63,0,3.01-.32,4.14-.97,1.13-.65,2.12-1.51,2.97-2.59l2.79,2.15c-.58.86-1.32,1.67-2.22,2.44-.9.77-2,1.4-3.3,1.89-1.31.48-2.85.73-4.63.73Z"/>
    <path class="cls-1" d="M407.8,179.82c-1.88,0-3.58-.31-5.1-.93s-2.83-1.5-3.92-2.63c-1.09-1.13-1.93-2.47-2.51-4.02-.58-1.55-.87-3.24-.87-5.08v-1.02c0-2.13.32-4.03.97-5.7.65-1.67,1.53-3.08,2.65-4.25s2.38-2.04,3.79-2.64,2.88-.9,4.39-.9c1.93,0,3.6.32,5,.97,1.41.65,2.56,1.55,3.46,2.7.9,1.15,1.56,2.51,1.99,4.06.43,1.56.65,3.25.65,5.09v2.01h-20.16v-3.65h15.55v-.34c-.07-1.16-.31-2.29-.74-3.39s-1.09-2-2.01-2.71c-.91-.71-2.16-1.06-3.74-1.06-1.05,0-2.01.21-2.89.64-.88.43-1.64,1.06-2.27,1.9-.63.84-1.12,1.86-1.47,3.07s-.52,2.61-.52,4.19v1.02c0,1.24.18,2.41.54,3.5.36,1.09.88,2.05,1.57,2.87s1.53,1.47,2.52,1.94c.99.47,2.12.7,3.38.7,1.63,0,3.01-.32,4.14-.97,1.13-.65,2.12-1.51,2.97-2.59l2.79,2.15c-.58.86-1.32,1.67-2.22,2.44-.9.77-2,1.4-3.3,1.89-1.31.48-2.85.73-4.63.73Z"/>
    <path class="cls-1" d="M434.99,153.15v3.44h-14.6v-3.44h14.6ZM425.34,146.79h4.62v26.06c0,.89.14,1.56.42,2.01.28.45.65.75,1.1.9.45.15.93.22,1.45.22.38,0,.79-.04,1.21-.11.42-.07.74-.13.96-.18l.03,3.65c-.37.11-.85.22-1.44.33-.59.1-1.3.16-2.13.16-1.13,0-2.17-.22-3.12-.65-.95-.44-1.7-1.17-2.26-2.19s-.84-2.41-.84-4.15v-26.04Z"/>
    <path class="cls-1" d="M451.94,166.53v-.51c0-2,.25-3.82.76-5.46s1.23-3.05,2.17-4.22c.94-1.18,2.06-2.09,3.37-2.72,1.31-.64,2.77-.96,4.38-.96,1.7,0,3.18.29,4.45.86,1.27.57,2.35,1.4,3.24,2.49s1.59,2.4,2.11,3.93c.52,1.53.87,3.27,1.07,5.2v2.23c-.18,1.92-.54,3.65-1.06,5.18-.52,1.53-1.23,2.84-2.12,3.92-.89,1.08-1.98,1.91-3.26,2.48-1.28.57-2.78.86-4.49.86-1.58,0-3.02-.33-4.33-.99-1.31-.66-2.43-1.59-3.37-2.78-.94-1.19-1.66-2.6-2.17-4.22-.51-1.62-.76-3.38-.76-5.29ZM456.58,166.02v.51c0,1.31.14,2.53.41,3.68.27,1.15.7,2.15,1.28,3.03.58.87,1.32,1.55,2.22,2.04.9.49,1.97.74,3.22.74,1.53,0,2.79-.31,3.78-.94s1.78-1.46,2.38-2.49c.6-1.03,1.06-2.15,1.4-3.36v-5.83c-.2-.89-.49-1.75-.86-2.58s-.86-1.57-1.45-2.23c-.59-.65-1.32-1.17-2.17-1.56s-1.87-.58-3.03-.58c-1.26,0-2.35.25-3.26.76s-1.65,1.2-2.23,2.08c-.58.88-1.01,1.9-1.28,3.05-.28,1.15-.41,2.38-.41,3.69ZM470.1,174.25v-32.09h4.64v37.17h-4.24l-.4-5.08Z"/>
    <path class="cls-1" d="M493.11,179.82c-1.88,0-3.58-.31-5.1-.93s-2.83-1.5-3.92-2.63c-1.09-1.13-1.93-2.47-2.51-4.02-.58-1.55-.87-3.24-.87-5.08v-1.02c0-2.13.32-4.03.97-5.7.65-1.67,1.53-3.08,2.65-4.25s2.38-2.04,3.79-2.64,2.88-.9,4.39-.9c1.93,0,3.6.32,5,.97,1.41.65,2.56,1.55,3.46,2.7.9,1.15,1.56,2.51,1.99,4.06.43,1.56.65,3.25.65,5.09v2.01h-20.16v-3.65h15.55v-.34c-.07-1.16-.31-2.29-.74-3.39s-1.09-2-2.01-2.71c-.91-.71-2.16-1.06-3.74-1.06-1.05,0-2.01.21-2.89.64-.88.43-1.64,1.06-2.27,1.9-.63.84-1.12,1.86-1.47,3.07s-.52,2.61-.52,4.19v1.02c0,1.24.18,2.41.54,3.5.36,1.09.88,2.05,1.57,2.87s1.53,1.47,2.52,1.94c.99.47,2.12.7,3.38.7,1.63,0,3.01-.32,4.14-.97,1.13-.65,2.12-1.51,2.97-2.59l2.79,2.15c-.58.86-1.32,1.67-2.22,2.44-.9.77-2,1.4-3.3,1.89-1.31.48-2.85.73-4.63.73Z"/>
    <path class="cls-1" d="M524.72,172.39c0-.65-.14-1.25-.44-1.8s-.88-1.06-1.77-1.52c-.89-.46-2.22-.86-4.01-1.2-1.5-.31-2.85-.67-4.06-1.09-1.21-.42-2.23-.93-3.07-1.52-.84-.6-1.49-1.3-1.94-2.11-.45-.81-.67-1.75-.67-2.83s.24-2.01.71-2.93,1.15-1.73,2.02-2.44c.87-.71,1.93-1.27,3.16-1.67s2.6-.6,4.12-.6c2.16,0,4.01.37,5.54,1.11,1.53.74,2.7,1.73,3.52,2.96.81,1.23,1.22,2.6,1.22,4.1h-4.62c0-.73-.22-1.43-.66-2.12-.44-.68-1.08-1.25-1.92-1.71-.84-.45-1.87-.68-3.08-.68-1.28,0-2.32.19-3.11.57-.79.38-1.36.86-1.72,1.44-.36.58-.54,1.19-.54,1.84,0,.48.09.92.26,1.29.17.38.49.73.94,1.04.45.31,1.08.61,1.89.88.82.27,1.86.55,3.12.82,2.21.48,4.03,1.06,5.46,1.74,1.43.68,2.5,1.51,3.19,2.49s1.05,2.18,1.05,3.58c0,1.15-.25,2.19-.74,3.15-.49.95-1.2,1.77-2.12,2.46-.92.69-2.02,1.22-3.29,1.6s-2.7.57-4.28.57c-2.38,0-4.39-.41-6.04-1.23-1.65-.82-2.89-1.89-3.74-3.19-.85-1.31-1.27-2.69-1.27-4.14h4.64c.07,1.23.43,2.2,1.1,2.92.67.72,1.48,1.23,2.45,1.53s1.92.45,2.87.45c1.26,0,2.32-.16,3.18-.48.86-.32,1.51-.77,1.96-1.33.45-.56.67-1.21.67-1.94Z"/>
    <path class="cls-1" d="M535.4,146.21c0-.73.23-1.34.68-1.84.46-.5,1.14-.75,2.03-.75s1.56.25,2.03.75c.47.5.71,1.11.71,1.84s-.24,1.29-.71,1.78c-.47.49-1.15.74-2.03.74s-1.58-.25-2.03-.74-.68-1.09-.68-1.78ZM540.39,153.15v26.18h-4.64v-26.18h4.64Z"/>
    <path class="cls-1" d="M546.7,166.53v-.51c0-2,.25-3.82.74-5.46s1.2-3.05,2.12-4.22c.92-1.18,2.04-2.09,3.36-2.72,1.31-.64,2.79-.96,4.44-.96s3.18.29,4.45.86c1.27.57,2.35,1.4,3.24,2.49s1.59,2.4,2.11,3.93c.52,1.53.87,3.27,1.07,5.2v2.23c-.18,1.92-.54,3.65-1.06,5.18-.52,1.53-1.23,2.84-2.12,3.92-.89,1.08-1.98,1.91-3.26,2.48-1.28.57-2.78.86-4.49.86-1.61,0-3.07-.33-4.38-.99-1.31-.66-2.42-1.59-3.36-2.78-.93-1.19-1.64-2.6-2.13-4.22-.49-1.62-.74-3.38-.74-5.29ZM565.29,153.15h4.19v25.63c0,2.31-.48,4.27-1.45,5.91-.96,1.63-2.31,2.87-4.03,3.71-1.72.85-3.71,1.27-5.95,1.27-.93,0-2.03-.14-3.28-.42s-2.49-.76-3.69-1.43c-1.21-.67-2.22-1.57-3.03-2.7l2.42-2.66c1.13,1.32,2.32,2.24,3.56,2.76,1.24.51,2.47.77,3.68.77,1.46,0,2.73-.27,3.79-.8s1.89-1.32,2.48-2.36.89-2.32.89-3.84v-20.08l.42-5.76ZM551.32,166.02v.51c0,1.31.14,2.53.41,3.68.27,1.15.7,2.15,1.27,3.03.57.87,1.31,1.55,2.21,2.04.9.49,1.97.74,3.22.74,1.53,0,2.8-.31,3.79-.94s1.79-1.46,2.38-2.49c.59-1.03,1.05-2.15,1.39-3.36v-5.83c-.18-.89-.46-1.75-.84-2.58s-.86-1.57-1.45-2.23-1.32-1.17-2.18-1.56c-.87-.39-1.88-.58-3.04-.58-1.26,0-2.35.25-3.26.76s-1.65,1.2-2.22,2.08c-.57.88-1,1.9-1.27,3.05-.28,1.15-.41,2.38-.41,3.69Z"/>
    <path class="cls-1" d="M581.11,158.74v20.59h-4.61v-26.18h4.37l.25,5.59ZM580.01,165.25l-1.92-.07c.02-1.79.29-3.45.82-4.97.53-1.53,1.28-2.85,2.25-3.98.96-1.13,2.12-2,3.46-2.63,1.34-.62,2.82-.93,4.45-.93,1.33,0,2.53.17,3.59.52,1.06.35,1.98.9,2.73,1.66.76.76,1.34,1.74,1.73,2.94s.6,2.67.6,4.39v17.16h-4.64v-17.2c0-1.37-.21-2.47-.62-3.3-.42-.83-1.02-1.44-1.82-1.82-.8-.38-1.78-.57-2.94-.57s-2.19.23-3.13.7c-.94.47-1.75,1.11-2.42,1.94s-1.2,1.76-1.57,2.82c-.37,1.06-.56,2.17-.56,3.35Z"/>
  </g>
  <path class="cls-1" d="M285.62,142.18c-5.96.68-12.52-.64-18.98-4.81-1.72-1.11-3.23-2.63-4.35-4.35-16.65-25.7,10.85-53.26,36.56-36.72,1.79,1.15,3.37,2.73,4.52,4.52,6.37,9.9,6.17,20.05,2.07,27.86-1.37,2.61.54,5.73,3.49,5.73h42.29c1.89,0,3.58-1.34,3.93-3.21,10.51-55.49-41.63-102.91-97.94-83.74-18.43,6.27-37.85,25.89-44.01,44.35-16.99,50.97,20.47,98.38,68.94,98.8l74.02.11c2.19,0,3.96-1.77,3.96-3.96v-40.26c0-2.18-1.76-3.95-3.94-3.96l-70.58-.36Z"/>
  <path class="cls-1" d="M151.76,115.9c.68,5.96-.64,12.52-4.81,18.98-1.11,1.72-2.63,3.23-4.35,4.35-25.7,16.65-53.26-10.85-36.72-36.56,1.15-1.79,2.73-3.37,4.52-4.52,9.9-6.37,20.05-6.17,27.86-2.07,2.61,1.37,5.73-.54,5.73-3.49v-42.29c0-1.89-1.34-3.58-3.21-3.93-55.49-10.51-102.91,41.63-83.74,97.94,6.27,18.43,25.89,37.85,44.35,44.01,50.97,16.99,98.38-20.47,98.8-68.94l.11-74.02c0-2.19-1.77-3.96-3.96-3.96h-40.26c-2.18,0-3.95,1.76-3.96,3.94l-.36,70.58Z"/>
  <path class="cls-1" d="M125.48,251.45c5.96-.68,12.52.64,18.98,4.81,1.72,1.11,3.23,2.63,4.35,4.35,16.65,25.7-10.85,53.26-36.56,36.72-1.79-1.15-3.37-2.73-4.52-4.52-6.37-9.9-6.17-20.05-2.07-27.86,1.37-2.61-.54-5.73-3.49-5.73h-42.29c-1.89,0-3.58,1.34-3.93,3.21-10.51,55.49,41.63,102.91,97.94,83.74,18.43-6.27,37.85-25.89,44.01-44.35,16.99-50.97-20.47-98.38-68.94-98.8l-74.02-.11c-2.19,0-3.96,1.77-3.96,3.96v40.26c0,2.18,1.76,3.95,3.94,3.96l70.58.36Z"/>
  <path class="cls-1" d="M259.33,277.74c-.68-5.96.64-12.52,4.81-18.98,1.11-1.72,2.63-3.23,4.35-4.35,25.7-16.65,53.26,10.85,36.72,36.56-1.15,1.79-2.73,3.37-4.52,4.52-9.9,6.37-20.05,6.17-27.86,2.07-2.61-1.37-5.73.54-5.73,3.49v42.29c0,1.89,1.34,3.58,3.21,3.93,55.49,10.51,102.91-41.63,83.74-97.94-6.27-18.43-25.89-37.85-44.35-44.01-50.97-16.99-98.38,20.47-98.8,68.94l-.11,74.02c0,2.19,1.77,3.96,3.96,3.96h40.26c2.18,0,3.95-1.76,3.96-3.94l.36-70.58Z"/>
</svg>