<?xml version="1.0" encoding="UTF-8"?>
<svg id="Calque_1" data-name="Calque 1" xmlns="http://www.w3.org/2000/svg" viewBox="0 0 413.9 393.63">
  <defs>
    <style>
      .cls-1 {
        fill: #fff;
      }
    </style>
  </defs>
  <path class="cls-1" d="M284.01,142.18c-5.96.68-12.52-.64-18.98-4.81-1.72-1.11-3.23-2.63-4.35-4.35-16.65-25.7,10.85-53.26,36.56-36.72,1.79,1.15,3.37,2.73,4.52,4.52,6.37,9.9,6.17,20.05,2.07,27.86-1.37,2.61.54,5.73,3.49,5.73h42.29c1.89,0,3.58-1.34,3.93-3.21,10.51-55.49-41.63-102.91-97.94-83.74-18.43,6.27-37.85,25.89-44.01,44.35-16.99,50.97,20.47,98.38,68.94,98.8l74.02.11c2.19,0,3.96-1.77,3.96-3.96v-40.26c0-2.18-1.76-3.95-3.94-3.96l-70.58-.36Z"/>
  <path class="cls-1" d="M150.15,115.9c.68,5.96-.64,12.52-4.81,18.98-1.11,1.72-2.63,3.23-4.35,4.35-25.7,16.65-53.26-10.85-36.72-36.56,1.15-1.79,2.73-3.37,4.52-4.52,9.9-6.37,20.05-6.17,27.86-2.07,2.61,1.37,5.73-.54,5.73-3.49v-42.29c0-1.89-1.34-3.58-3.21-3.93-55.49-10.51-102.91,41.63-83.74,97.94,6.27,18.43,25.89,37.85,44.35,44.01,50.97,16.99,98.38-20.47,98.8-68.94l.11-74.02c0-2.19-1.77-3.96-3.96-3.96h-40.26c-2.18,0-3.95,1.76-3.96,3.94l-.36,70.58Z"/>
  <path class="cls-1" d="M123.87,251.45c5.96-.68,12.52.64,18.98,4.81,1.72,1.11,3.23,2.63,4.35,4.35,16.65,25.7-10.85,53.26-36.56,36.72-1.79-1.15-3.37-2.73-4.52-4.52-6.37-9.9-6.17-20.05-2.07-27.86,1.37-2.61-.54-5.73-3.49-5.73h-42.29c-1.89,0-3.58,1.34-3.93,3.21-10.51,55.49,41.63,102.91,97.94,83.74,18.43-6.27,37.85-25.89,44.01-44.35,16.99-50.97-20.47-98.38-68.94-98.8l-74.02-.11c-2.19,0-3.96,1.77-3.96,3.96v40.26c0,2.18,1.76,3.95,3.94,3.96l70.58.36Z"/>
  <path class="cls-1" d="M257.73,277.74c-.68-5.96.64-12.52,4.81-18.98,1.11-1.72,2.63-3.23,4.35-4.35,25.7-16.65,53.26,10.85,36.72,36.56-1.15,1.79-2.73,3.37-4.52,4.52-9.9,6.37-20.05,6.17-27.86,2.07-2.61-1.37-5.73.54-5.73,3.49v42.29c0,1.89,1.34,3.58,3.21,3.93,55.49,10.51,102.91-41.63,83.74-97.94-6.27-18.43-25.89-37.85-44.35-44.01-50.97-16.99-98.38,20.47-98.8,68.94l-.11,74.02c0,2.19,1.77,3.96,3.96,3.96h40.26c2.18,0,3.95-1.76,3.96-3.94l.36-70.58Z"/>
</svg>