<?xml version="1.0" encoding="UTF-8"?>
<svg id="Calque_1" data-name="Calque 1" xmlns="http://www.w3.org/2000/svg" viewBox="0 0 1615.42 393.63">
  <defs>
    <style>
      .cls-1 {
        fill: #191919;
      }
    </style>
  </defs>
  <g>
    <path class="cls-1" d="M1301.88,173.2c0-2.2.39-4.24,1.17-6.12s1.88-3.52,3.27-4.93c1.4-1.4,3.01-2.49,4.84-3.28,1.83-.78,3.79-1.17,5.89-1.17s4.06.39,5.89,1.17c1.83.78,3.44,1.87,4.83,3.28,1.39,1.4,2.48,3.05,3.26,4.93s1.18,3.92,1.18,6.12-.39,4.24-1.18,6.12-1.87,3.53-3.26,4.94c-1.39,1.42-3,2.52-4.83,3.31-1.83.79-3.79,1.18-5.89,1.18s-4.06-.39-5.89-1.18c-1.83-.79-3.45-1.89-4.84-3.31-1.4-1.42-2.49-3.06-3.27-4.94s-1.17-3.92-1.17-6.12ZM1304.34,173.2c0,1.84.33,3.55.98,5.14s1.57,2.98,2.74,4.17c1.17,1.19,2.52,2.12,4.06,2.78,1.54.66,3.19.99,4.94.99s3.4-.33,4.93-.99c1.53-.66,2.88-1.59,4.04-2.78,1.16-1.19,2.07-2.58,2.73-4.17s.98-3.3.98-5.14-.33-3.57-.98-5.14-1.56-2.95-2.73-4.14c-1.16-1.18-2.51-2.1-4.04-2.76-1.53-.66-3.18-.98-4.93-.98s-3.4.33-4.94.98c-1.54.66-2.89,1.58-4.06,2.76-1.17,1.18-2.08,2.56-2.74,4.14s-.98,3.29-.98,5.14ZM1317.62,174.74h-4.66l-.04-2.65h4.34c.6-.01,1.16-.12,1.68-.31.52-.19.94-.47,1.26-.84.32-.37.48-.82.48-1.36,0-.69-.12-1.24-.36-1.64-.24-.4-.64-.69-1.21-.87-.56-.18-1.33-.27-2.3-.27h-2.91v14.95h-3.01v-17.58h5.92c1.41,0,2.63.19,3.66.58,1.03.39,1.82.97,2.37,1.75.56.78.83,1.77.83,2.95,0,.75-.18,1.42-.53,2.01-.36.6-.88,1.11-1.56,1.53s-1.52.77-2.5,1.04c-.04,0-.09.05-.14.14s-.1.13-.14.13c-.24.14-.4.24-.46.3-.06.06-.13.1-.19.11-.06.01-.24.02-.52.02ZM1317.41,174.74l.43-1.87c2.21,0,3.72.45,4.52,1.36.8.91,1.21,2.05,1.21,3.43v1.12c0,.51.03,1,.08,1.46.06.46.15.85.28,1.17v.33h-3.1c-.14-.36-.22-.87-.25-1.53s-.03-1.15-.03-1.45v-1.08c0-1.01-.24-1.75-.72-2.23-.48-.48-1.29-.71-2.43-.71Z"/>
    <path class="cls-1" d="M1315.08,203.27l-10.31,27.52h-4.21l11.87-30.19h2.71l-.06,2.67ZM1323.18,219.61v3.28h-17.49v-3.28h17.49ZM1323.71,230.79l-10.33-27.52-.06-2.67h2.72l11.91,30.19h-4.23Z"/>
    <path class="cls-1" d="M1335.47,211.88v18.91h-3.96v-22.44h3.85l.11,3.53ZM1342.7,208.23l-.02,3.57c-.33-.07-.64-.11-.93-.14-.29-.02-.62-.03-.99-.03-.91,0-1.72.14-2.42.41-.7.28-1.29.66-1.77,1.16-.48.5-.87,1.09-1.14,1.77-.28.68-.46,1.44-.54,2.25l-1.11.62c0-1.35.14-2.63.42-3.82.28-1.19.71-2.24,1.29-3.16.58-.92,1.33-1.64,2.23-2.16.9-.52,1.99-.78,3.24-.78.29,0,.61.03.98.09s.63.13.77.2Z"/>
    <path class="cls-1" d="M1355.21,228.05c.94,0,1.81-.19,2.61-.56.8-.37,1.45-.89,1.97-1.55.51-.66.8-1.41.88-2.25h3.76c-.07,1.33-.53,2.56-1.38,3.7-.85,1.14-1.96,2.06-3.33,2.76-1.37.7-2.87,1.05-4.51,1.05-1.74,0-3.25-.3-4.54-.89-1.29-.59-2.36-1.41-3.21-2.45-.85-1.04-1.48-2.23-1.9-3.58-.42-1.35-.63-2.77-.63-4.28v-.87c0-1.5.21-2.93.63-4.28s1.05-2.54,1.9-3.58,1.92-1.85,3.21-2.45c1.29-.59,2.8-.89,4.54-.89s3.39.36,4.75,1.07,2.42,1.68,3.2,2.9,1.2,2.61,1.27,4.16h-3.76c-.07-.93-.34-1.76-.8-2.51s-1.09-1.34-1.88-1.79c-.79-.45-1.72-.68-2.77-.68-1.21,0-2.23.23-3.05.69s-1.47,1.09-1.94,1.87c-.48.78-.82,1.64-1.03,2.59s-.31,1.91-.31,2.89v.87c0,.98.1,1.95.3,2.9.2.95.54,1.82,1.02,2.59.48.78,1.12,1.39,1.94,1.86s1.84.69,3.07.69Z"/>
    <path class="cls-1" d="M1372.83,198.94v31.85h-3.96v-31.85h3.96ZM1371.89,218.72l-1.65-.06c.01-1.53.25-2.95.71-4.26.46-1.31,1.1-2.44,1.92-3.41.83-.97,1.81-1.72,2.96-2.25,1.15-.53,2.42-.8,3.82-.8,1.14,0,2.17.15,3.08.45.91.3,1.69.77,2.34,1.42s1.14,1.49,1.49,2.52c.34,1.03.51,2.28.51,3.76v14.7h-3.98v-14.74c0-1.17-.18-2.12-.53-2.83s-.88-1.23-1.56-1.56c-.68-.33-1.53-.49-2.52-.49s-1.88.2-2.68.6-1.5.95-2.07,1.66c-.58.7-1.03,1.51-1.35,2.42s-.48,1.86-.48,2.87Z"/>
    <path class="cls-1" d="M1393.01,202.4c0-.62.19-1.15.59-1.58.39-.43.97-.64,1.74-.64s1.34.21,1.74.64c.41.43.61.95.61,1.58s-.2,1.1-.61,1.52c-.41.42-.99.63-1.74.63s-1.35-.21-1.74-.63c-.39-.42-.59-.93-.59-1.52ZM1397.29,208.35v22.44h-3.98v-22.44h3.98Z"/>
    <path class="cls-1" d="M1413.33,208.35v2.95h-12.51v-2.95h12.51ZM1405.05,202.9h3.96v22.33c0,.76.12,1.34.36,1.72.24.39.56.64.94.77.38.13.8.19,1.24.19.33,0,.68-.03,1.04-.09.36-.06.64-.11.82-.16l.02,3.13c-.31.1-.72.19-1.23.28-.51.09-1.12.14-1.83.14-.97,0-1.86-.19-2.67-.56-.81-.37-1.46-1-1.94-1.88-.48-.88-.72-2.06-.72-3.56v-22.31Z"/>
    <path class="cls-1" d="M1427.57,231.2c-1.61,0-3.07-.27-4.37-.8-1.31-.53-2.43-1.28-3.36-2.25-.93-.97-1.65-2.11-2.15-3.44-.5-1.33-.75-2.78-.75-4.35v-.87c0-1.83.28-3.45.83-4.88s1.31-2.64,2.27-3.64,2.04-1.75,3.25-2.26,2.47-.77,3.76-.77c1.65,0,3.08.28,4.29.83,1.21.55,2.19,1.33,2.96,2.31s1.34,2.15,1.71,3.48c.37,1.33.56,2.79.56,4.36v1.72h-17.28v-3.13h13.32v-.29c-.06-1-.27-1.96-.63-2.9-.36-.94-.94-1.71-1.72-2.32-.79-.61-1.85-.91-3.21-.91-.9,0-1.72.18-2.48.55-.75.37-1.4.91-1.94,1.63-.54.72-.96,1.6-1.26,2.63-.3,1.04-.45,2.23-.45,3.59v.87c0,1.06.15,2.06.46,3,.31.93.76,1.75,1.35,2.46.59.71,1.31,1.26,2.16,1.66.85.4,1.81.6,2.9.6,1.4,0,2.58-.28,3.55-.83.97-.55,1.82-1.29,2.54-2.22l2.39,1.85c-.5.73-1.13,1.43-1.9,2.09s-1.71,1.2-2.83,1.62c-1.12.41-2.44.62-3.97.62Z"/>
    <path class="cls-1" d="M1450.45,228.05c.94,0,1.81-.19,2.61-.56.8-.37,1.45-.89,1.97-1.55.51-.66.8-1.41.88-2.25h3.76c-.07,1.33-.53,2.56-1.38,3.7-.85,1.14-1.96,2.06-3.33,2.76-1.37.7-2.87,1.05-4.51,1.05-1.74,0-3.25-.3-4.54-.89-1.29-.59-2.36-1.41-3.21-2.45-.85-1.04-1.48-2.23-1.9-3.58-.42-1.35-.63-2.77-.63-4.28v-.87c0-1.5.21-2.93.63-4.28s1.05-2.54,1.9-3.58,1.92-1.85,3.21-2.45c1.29-.59,2.8-.89,4.54-.89s3.39.36,4.75,1.07,2.42,1.68,3.2,2.9,1.2,2.61,1.27,4.16h-3.76c-.07-.93-.34-1.76-.8-2.51s-1.09-1.34-1.88-1.79c-.79-.45-1.72-.68-2.77-.68-1.21,0-2.23.23-3.05.69s-1.47,1.09-1.94,1.87c-.48.78-.82,1.64-1.03,2.59s-.31,1.91-.31,2.89v.87c0,.98.1,1.95.3,2.9.2.95.54,1.82,1.02,2.59.48.78,1.12,1.39,1.94,1.86s1.84.69,3.07.69Z"/>
    <path class="cls-1" d="M1473.8,208.35v2.95h-12.51v-2.95h12.51ZM1465.52,202.9h3.96v22.33c0,.76.12,1.34.36,1.72.24.39.56.64.94.77.38.13.8.19,1.24.19.33,0,.68-.03,1.04-.09.36-.06.64-.11.82-.16l.02,3.13c-.31.1-.72.19-1.23.28-.51.09-1.12.14-1.83.14-.97,0-1.86-.19-2.67-.56-.81-.37-1.46-1-1.94-1.88-.48-.88-.72-2.06-.72-3.56v-22.31Z"/>
    <path class="cls-1" d="M1493.34,220.88l1.65-.04c0,1.49-.16,2.87-.48,4.14-.32,1.27-.84,2.36-1.55,3.29-.71.93-1.65,1.65-2.8,2.17-1.15.52-2.56.78-4.21.78-1.13,0-2.16-.16-3.09-.48s-1.73-.81-2.4-1.47c-.67-.66-1.19-1.53-1.55-2.59s-.55-2.34-.55-3.84v-14.48h3.96v14.52c0,1.01.12,1.84.35,2.5.24.66.56,1.17.96,1.56.41.38.86.65,1.37.8.51.15,1.03.23,1.57.23,1.68,0,3.02-.31,4-.94.98-.63,1.69-1.48,2.13-2.55.43-1.07.65-2.26.65-3.58ZM1492.59,225.6v-17.25h3.98v22.44h-3.78l-.19-5.18Z"/>
    <path class="cls-1" d="M1506.53,211.88v18.91h-3.96v-22.44h3.85l.11,3.53ZM1513.76,208.23l-.02,3.57c-.33-.07-.64-.11-.93-.14-.29-.02-.62-.03-.99-.03-.91,0-1.72.14-2.42.41-.7.28-1.29.66-1.77,1.16-.48.5-.87,1.09-1.14,1.77-.28.68-.46,1.44-.54,2.25l-1.11.62c0-1.35.14-2.63.42-3.82.28-1.19.71-2.24,1.29-3.16.58-.92,1.33-1.64,2.23-2.16.9-.52,1.99-.78,3.24-.78.29,0,.61.03.98.09s.63.13.77.2Z"/>
    <path class="cls-1" d="M1526.61,231.2c-1.61,0-3.07-.27-4.37-.8-1.31-.53-2.43-1.28-3.36-2.25-.93-.97-1.65-2.11-2.15-3.44-.5-1.33-.75-2.78-.75-4.35v-.87c0-1.83.28-3.45.83-4.88s1.31-2.64,2.27-3.64,2.04-1.75,3.25-2.26,2.47-.77,3.76-.77c1.65,0,3.08.28,4.29.83,1.21.55,2.19,1.33,2.96,2.31s1.34,2.15,1.71,3.48c.37,1.33.56,2.79.56,4.36v1.72h-17.28v-3.13h13.32v-.29c-.06-1-.27-1.96-.63-2.9-.36-.94-.94-1.71-1.72-2.32-.79-.61-1.85-.91-3.21-.91-.9,0-1.72.18-2.48.55-.75.37-1.4.91-1.94,1.63-.54.72-.96,1.6-1.26,2.63-.3,1.04-.45,2.23-.45,3.59v.87c0,1.06.15,2.06.46,3,.31.93.76,1.75,1.35,2.46.59.71,1.31,1.26,2.16,1.66.85.4,1.81.6,2.9.6,1.4,0,2.58-.28,3.55-.83.97-.55,1.82-1.29,2.54-2.22l2.39,1.85c-.5.73-1.13,1.43-1.9,2.09s-1.71,1.2-2.83,1.62c-1.12.41-2.44.62-3.97.62Z"/>
    <path class="cls-1" d="M1312.55,273.67c-1.61,0-3.07-.27-4.37-.8-1.31-.53-2.43-1.28-3.36-2.25-.93-.97-1.65-2.11-2.15-3.44-.5-1.33-.75-2.78-.75-4.35v-.87c0-1.83.28-3.45.83-4.88s1.31-2.64,2.27-3.64,2.04-1.75,3.25-2.26,2.47-.77,3.76-.77c1.65,0,3.08.28,4.29.83,1.21.55,2.19,1.33,2.96,2.31s1.34,2.15,1.71,3.48c.37,1.33.56,2.79.56,4.36v1.72h-17.28v-3.13h13.32v-.29c-.06-1-.27-1.96-.63-2.9-.36-.94-.94-1.71-1.72-2.32-.79-.61-1.85-.91-3.21-.91-.9,0-1.72.18-2.48.55-.75.37-1.4.91-1.94,1.63-.54.72-.96,1.6-1.26,2.63-.3,1.04-.45,2.23-.45,3.59v.87c0,1.06.15,2.06.46,3,.31.93.76,1.75,1.35,2.46.59.71,1.31,1.26,2.16,1.66.85.4,1.81.6,2.9.6,1.4,0,2.58-.28,3.55-.83.97-.55,1.82-1.29,2.54-2.22l2.39,1.85c-.5.73-1.13,1.43-1.9,2.09s-1.71,1.2-2.83,1.62c-1.12.41-2.44.62-3.97.62Z"/>
    <path class="cls-1" d="M1335.86,250.82v2.95h-12.51v-2.95h12.51ZM1327.58,245.37h3.96v22.33c0,.76.12,1.34.36,1.72.24.39.56.64.94.77.38.13.8.19,1.24.19.33,0,.68-.03,1.04-.09.36-.06.64-.11.82-.16l.02,3.13c-.31.1-.72.19-1.23.28-.51.09-1.12.14-1.83.14-.97,0-1.86-.19-2.67-.56-.81-.37-1.46-1-1.94-1.88-.48-.88-.72-2.06-.72-3.56v-22.31Z"/>
    <path class="cls-1" d="M1350.38,262.29v-.44c0-1.71.22-3.27.65-4.67.43-1.4,1.06-2.61,1.86-3.62.81-1.01,1.77-1.79,2.89-2.33s2.37-.82,3.75-.82c1.45,0,2.73.25,3.82.74s2.02,1.2,2.78,2.14c.76.93,1.36,2.06,1.81,3.37s.75,2.8.92,4.46v1.91c-.16,1.65-.46,3.13-.91,4.44-.45,1.31-1.06,2.43-1.82,3.36-.76.93-1.69,1.63-2.79,2.12-1.1.49-2.38.74-3.85.74-1.35,0-2.59-.28-3.71-.85-1.12-.57-2.08-1.36-2.89-2.38-.8-1.02-1.43-2.23-1.86-3.62-.44-1.39-.65-2.9-.65-4.53ZM1354.35,261.85v.44c0,1.12.12,2.17.35,3.15s.6,1.85,1.1,2.59c.5.75,1.13,1.33,1.9,1.75.77.42,1.69.63,2.76.63,1.31,0,2.39-.27,3.24-.81.85-.54,1.53-1.25,2.04-2.14.51-.88.91-1.84,1.2-2.88v-5c-.17-.76-.42-1.5-.74-2.21s-.74-1.35-1.24-1.91c-.51-.56-1.13-1.01-1.86-1.34-.74-.33-1.6-.5-2.6-.5-1.08,0-2.01.22-2.79.65-.78.43-1.41,1.03-1.91,1.78-.5.75-.87,1.62-1.1,2.61-.24.99-.35,2.04-.35,3.16ZM1365.94,268.9v-27.5h3.98v31.85h-3.63l-.34-4.35Z"/>
    <path class="cls-1" d="M1385.66,273.67c-1.61,0-3.07-.27-4.37-.8-1.31-.53-2.43-1.28-3.36-2.25-.93-.97-1.65-2.11-2.15-3.44-.5-1.33-.75-2.78-.75-4.35v-.87c0-1.83.28-3.45.83-4.88s1.31-2.64,2.27-3.64,2.04-1.75,3.25-2.26,2.47-.77,3.76-.77c1.65,0,3.08.28,4.29.83,1.21.55,2.19,1.33,2.96,2.31s1.34,2.15,1.71,3.48c.37,1.33.56,2.79.56,4.36v1.72h-17.28v-3.13h13.32v-.29c-.06-1-.27-1.96-.63-2.9-.36-.94-.94-1.71-1.72-2.32-.79-.61-1.85-.91-3.21-.91-.9,0-1.72.18-2.48.55-.75.37-1.4.91-1.94,1.63-.54.72-.96,1.6-1.26,2.63-.3,1.04-.45,2.23-.45,3.59v.87c0,1.06.15,2.06.46,3,.31.93.76,1.75,1.35,2.46.59.71,1.31,1.26,2.16,1.66.85.4,1.81.6,2.9.6,1.4,0,2.58-.28,3.55-.83.97-.55,1.82-1.29,2.54-2.22l2.39,1.85c-.5.73-1.13,1.43-1.9,2.09s-1.71,1.2-2.83,1.62c-1.12.41-2.44.62-3.97.62Z"/>
    <path class="cls-1" d="M1412.75,267.31c0-.55-.13-1.07-.37-1.54-.25-.48-.76-.91-1.52-1.31-.76-.39-1.91-.74-3.43-1.03-1.28-.26-2.44-.57-3.47-.93-1.03-.36-1.91-.79-2.63-1.31s-1.27-1.11-1.66-1.81c-.38-.69-.58-1.5-.58-2.43s.2-1.72.61-2.51c.41-.79.98-1.49,1.73-2.09.75-.61,1.65-1.09,2.7-1.43,1.05-.35,2.23-.52,3.53-.52,1.85,0,3.44.32,4.75.95,1.31.64,2.32,1.48,3.01,2.54.7,1.06,1.05,2.23,1.05,3.51h-3.96c0-.62-.19-1.23-.57-1.81-.38-.59-.93-1.07-1.65-1.46-.72-.39-1.6-.58-2.64-.58-1.1,0-1.99.16-2.66.49-.68.32-1.17.74-1.47,1.23s-.46,1.02-.46,1.58c0,.41.08.79.23,1.11.15.33.42.62.8.89.39.27.93.52,1.63.76s1.59.47,2.67.7c1.9.41,3.46.91,4.68,1.49,1.23.58,2.14,1.29,2.74,2.14s.9,1.87.9,3.07c0,.98-.21,1.88-.63,2.7-.42.82-1.03,1.52-1.82,2.1-.79.59-1.73,1.04-2.82,1.37-1.09.33-2.31.49-3.67.49-2.04,0-3.76-.35-5.17-1.06-1.41-.71-2.48-1.62-3.21-2.74s-1.09-2.3-1.09-3.55h3.98c.06,1.05.37,1.88.94,2.5.57.62,1.27,1.05,2.1,1.31.83.26,1.65.38,2.46.38,1.08,0,1.99-.14,2.73-.41.73-.28,1.29-.66,1.68-1.14.38-.48.58-1.04.58-1.66Z"/>
    <path class="cls-1" d="M1421.9,244.87c0-.62.19-1.15.59-1.58.39-.43.97-.64,1.74-.64s1.34.21,1.74.64c.41.43.61.95.61,1.58s-.2,1.1-.61,1.52c-.41.42-.99.63-1.74.63s-1.35-.21-1.74-.63c-.39-.42-.59-.93-.59-1.52ZM1426.18,250.82v22.44h-3.98v-22.44h3.98Z"/>
    <path class="cls-1" d="M1431.59,262.29v-.44c0-1.71.21-3.27.63-4.67s1.03-2.61,1.82-3.62,1.75-1.79,2.88-2.33c1.12-.55,2.39-.82,3.81-.82s2.73.25,3.82.74,2.02,1.2,2.78,2.14c.76.93,1.36,2.06,1.81,3.37s.75,2.8.92,4.46v1.91c-.16,1.65-.46,3.13-.91,4.44-.45,1.31-1.06,2.43-1.82,3.36-.76.93-1.69,1.63-2.79,2.12-1.1.49-2.38.74-3.85.74-1.38,0-2.63-.28-3.75-.85-1.12-.57-2.08-1.36-2.87-2.38-.8-1.02-1.41-2.23-1.83-3.62s-.63-2.9-.63-4.53ZM1447.52,250.82h3.59v21.96c0,1.98-.41,3.66-1.24,5.06-.83,1.4-1.98,2.46-3.45,3.18s-3.18,1.09-5.1,1.09c-.8,0-1.74-.12-2.81-.36-1.08-.24-2.13-.65-3.16-1.22-1.03-.57-1.9-1.34-2.6-2.31l2.07-2.28c.97,1.13,1.98,1.92,3.05,2.36,1.06.44,2.11.66,3.15.66,1.25,0,2.34-.23,3.25-.68.91-.46,1.62-1.13,2.13-2.02s.76-1.99.76-3.29v-17.21l.36-4.94ZM1435.54,261.85v.44c0,1.12.12,2.17.35,3.15s.6,1.85,1.09,2.59c.49.75,1.12,1.33,1.89,1.75.77.42,1.69.63,2.76.63,1.31,0,2.39-.27,3.25-.81.85-.54,1.54-1.25,2.04-2.14.51-.88.9-1.84,1.19-2.88v-5c-.16-.76-.4-1.5-.72-2.21s-.74-1.35-1.24-1.91c-.51-.56-1.13-1.01-1.87-1.34-.74-.33-1.61-.5-2.61-.5-1.08,0-2.01.22-2.79.65-.78.43-1.41,1.03-1.9,1.78-.49.75-.86,1.62-1.09,2.61-.24.99-.35,2.04-.35,3.16Z"/>
    <path class="cls-1" d="M1461.07,255.61v17.65h-3.96v-22.44h3.74l.21,4.79ZM1460.13,261.19l-1.65-.06c.01-1.53.25-2.95.71-4.26.46-1.31,1.1-2.44,1.92-3.41.83-.97,1.81-1.72,2.96-2.25,1.15-.53,2.42-.8,3.82-.8,1.14,0,2.17.15,3.08.45.91.3,1.69.77,2.34,1.42s1.14,1.49,1.49,2.52c.34,1.03.51,2.28.51,3.76v14.7h-3.98v-14.74c0-1.17-.18-2.12-.53-2.83s-.88-1.23-1.56-1.56c-.68-.33-1.53-.49-2.52-.49s-1.88.2-2.68.6-1.5.95-2.07,1.66c-.58.7-1.03,1.51-1.35,2.42s-.48,1.86-.48,2.87Z"/>
  </g>
  <path class="cls-1" d="M523.14,209.08c0-31.86-25.91-57.77-57.77-57.77s-57.25,25.45-57.73,56.9h-.13v63.32c0,2.78,2.26,5.04,5.04,5.04h31.19c2.78,0,5.04-2.26,5.04-5.04v-62.44h.09c0-9.1,7.4-16.5,16.5-16.5s15.94,6.94,16.41,15.62h-.03v63.32c0,2.78,2.26,5.04,5.04,5.04h31.19c2.78,0,5.04-2.26,5.04-5.04v-62.44h.12Z"/>
  <path class="cls-1" d="M761.68,154.14h-31.19c-2.78,0-5.04,2.26-5.04,5.04v62.79h-.09c0,9.2-7.49,16.69-16.69,16.69s-16.13-7.02-16.6-15.81h.03v-63.67c0-2.78-2.26-5.04-5.04-5.04h-31.19c-2.78,0-5.04,2.26-5.04,5.04v62.79h-.12c0,31.96,26,57.96,57.96,57.96s57.44-25.53,57.92-57.08h.13v-63.67c0-2.78-2.26-5.04-5.04-5.04Z"/>
  <path class="cls-1" d="M1251.64,152.52h-31.19c-2.78,0-5.04,2.26-5.04,5.04v62.79h-.09c0,9.2-7.49,16.69-16.69,16.69s-16.13-7.02-16.6-15.81h.03v-63.67c0-2.78-2.26-5.04-5.04-5.04h-31.19c-2.78,0-5.04,2.26-5.04,5.04v62.79h-.12c0,31.96,26,57.96,57.96,57.96s57.44-25.53,57.92-57.08h.13v-63.67c0-2.78-2.26-5.04-5.04-5.04Z"/>
  <path class="cls-1" d="M597.53,277.67c-43.18,7.14-80.17-29.84-73.03-73.03,4.33-26.16,25.43-47.26,51.59-51.59,43.18-7.14,80.17,29.84,73.03,73.03-4.33,26.16-25.43,47.26-51.59,51.59ZM591.11,193.85c-15.42-2.95-28.75,10.39-25.81,25.81,1.64,8.57,8.65,15.58,17.21,17.21,15.42,2.95,28.75-10.39,25.81-25.81-1.64-8.57-8.65-15.58-17.21-17.21Z"/>
  <path class="cls-1" d="M271.87,237.05c-5.11.59-10.73-.55-16.26-4.12-1.47-.95-2.77-2.25-3.73-3.73-14.27-22.02,9.3-45.64,31.33-31.47,1.53.99,2.89,2.34,3.87,3.87,5.46,8.49,5.29,17.19,1.77,23.87-1.18,2.24.47,4.91,3,4.91h36.24c1.62,0,3.07-1.15,3.37-2.75,9-47.56-35.68-88.19-83.93-71.76-15.79,5.38-32.44,22.18-37.71,38.01-14.56,43.68,17.54,84.31,59.08,84.67l63.43.1c1.88,0,3.4-1.52,3.4-3.39v-34.5c0-1.87-1.51-3.38-3.37-3.39l-60.48-.31Z"/>
  <path class="cls-1" d="M164.69,213.31c.59,5.11-.55,10.73-4.12,16.26-.95,1.47-2.25,2.77-3.73,3.73-22.02,14.27-45.64-9.3-31.47-31.33.99-1.53,2.34-2.89,3.87-3.87,8.49-5.46,17.19-5.29,23.87-1.77,2.24,1.18,4.91-.47,4.91-3v-36.24c0-1.62-1.15-3.07-2.75-3.37-47.56-9-88.19,35.68-71.76,83.93,5.38,15.79,22.18,32.44,38.01,37.71,43.68,14.56,84.31-17.54,84.67-59.08l.1-101.37c0-1.88-1.52-3.4-3.39-3.4h-34.5c-1.87,0-3.38,1.51-3.39,3.37l-.31,98.42Z"/>
  <path class="cls-1" d="M950.1,237.05c-5.11.59-10.73-.55-16.26-4.12-1.47-.95-2.77-2.25-3.73-3.73-14.27-22.02,9.3-45.64,31.33-31.47,1.53.99,2.89,2.34,3.87,3.87,5.46,8.49,5.29,17.19,1.77,23.87-1.18,2.24.47,4.91,3,4.91h36.24c1.62,0,3.07-1.15,3.37-2.75,9-47.56-35.68-88.19-83.93-71.76-15.79,5.38-32.44,22.18-37.71,38.01-14.56,43.68,17.54,84.31,59.08,84.67l63.43.1c1.88,0,3.4-1.52,3.4-3.39v-34.5c0-1.87-1.51-3.38-3.37-3.39l-60.48-.31Z"/>
  <path class="cls-1" d="M1096.33,215.47c.59-5.11-.55-10.73-4.12-16.26-.95-1.47-2.25-2.77-3.73-3.73-22.02-14.27-45.64,9.3-31.47,31.33.99,1.53,2.34,2.89,3.87,3.87,8.49,5.46,17.19,5.29,23.87,1.77,2.24-1.18,4.91.47,4.91,3v36.24c0,1.62-1.15,3.07-2.75,3.37-47.56,9-88.19-35.68-71.76-83.93,5.38-15.79,22.18-32.44,38.01-37.71,43.68-14.56,84.31,17.54,84.67,59.08l.1,63.43c0,1.88-1.52,3.4-3.39,3.4h-34.5c-1.87,0-3.38-1.51-3.39-3.37l-.31-60.48Z"/>
  <path class="cls-1" d="M852.23,156.14l-18.8,72-18.89-72.01c-.58-2.22-2.58-3.76-4.88-3.76h-38.41c-3.45,0-5.88,3.39-4.77,6.66l32.68,96.03c5.32,14.58,18.79,24,34.31,24h.03c15.54-.01,29-9.46,34.3-24.06l32.68-95.97c1.11-3.27-1.32-6.67-4.77-6.67h-38.6c-2.29,0-4.3,1.55-4.88,3.77Z"/>
</svg>