<?xml version="1.0" encoding="iso-8859-1"?>
<!-- Generator: Adobe Illustrator 30.3.0, SVG Export Plug-In . SVG Version: 9.03 Build 0)  -->
<svg version="1.1" id="Calque_1" xmlns="http://www.w3.org/2000/svg" xmlns:xlink="http://www.w3.org/1999/xlink" x="0px" y="0px"
	 width="1472.073px" height="193.455px" viewBox="0 0 1472.073 193.455" enable-background="new 0 0 1472.073 193.455"
	 xml:space="preserve">
<g>
	<path fill="#191919" d="M1229.872,74.134c0-2.2,0.39-4.24,1.17-6.12s1.88-3.52,3.27-4.93c1.4-1.4,3.01-2.49,4.84-3.28
		c1.83-0.78,3.79-1.17,5.89-1.17s4.06,0.39,5.89,1.17s3.44,1.87,4.83,3.28c1.39,1.4,2.48,3.05,3.26,4.93s1.18,3.92,1.18,6.12
		s-0.39,4.24-1.18,6.12s-1.87,3.53-3.26,4.94c-1.39,1.42-3,2.52-4.83,3.31s-3.79,1.18-5.89,1.18s-4.06-0.39-5.89-1.18
		s-3.45-1.89-4.84-3.31c-1.4-1.42-2.49-3.06-3.27-4.94S1229.872,76.334,1229.872,74.134z M1232.332,74.134
		c0,1.84,0.33,3.55,0.98,5.14s1.57,2.98,2.74,4.17s2.52,2.12,4.06,2.78s3.19,0.99,4.94,0.99s3.4-0.33,4.93-0.99s2.88-1.59,4.04-2.78
		s2.07-2.58,2.73-4.17s0.98-3.3,0.98-5.14s-0.33-3.57-0.98-5.14s-1.56-2.95-2.73-4.14c-1.16-1.18-2.51-2.1-4.04-2.76
		c-1.53-0.66-3.18-0.98-4.93-0.98s-3.4,0.33-4.94,0.98c-1.54,0.66-2.89,1.58-4.06,2.76c-1.17,1.18-2.08,2.56-2.74,4.14
		S1232.332,72.284,1232.332,74.134z M1245.612,75.674h-4.66l-0.04-2.65h4.34c0.6-0.01,1.16-0.12,1.68-0.31s0.94-0.47,1.26-0.84
		c0.32-0.37,0.48-0.82,0.48-1.36c0-0.69-0.12-1.24-0.36-1.64s-0.64-0.69-1.21-0.87c-0.56-0.18-1.33-0.27-2.3-0.27h-2.91v14.95h-3.01
		v-17.58h5.92c1.41,0,2.63,0.19,3.66,0.58s1.82,0.97,2.37,1.75c0.56,0.78,0.83,1.77,0.83,2.95c0,0.75-0.18,1.42-0.53,2.01
		c-0.36,0.6-0.88,1.11-1.56,1.53s-1.52,0.77-2.5,1.04c-0.04,0-0.09,0.05-0.14,0.14s-0.1,0.13-0.14,0.13
		c-0.24,0.14-0.4,0.24-0.46,0.3c-0.06,0.06-0.13,0.1-0.19,0.11c-0.06,0.01-0.24,0.02-0.52,0.02L1245.612,75.674z M1245.402,75.674
		l0.43-1.87c2.21,0,3.72,0.45,4.52,1.36s1.21,2.05,1.21,3.43v1.12c0,0.51,0.03,1,0.08,1.46c0.06,0.46,0.15,0.85,0.28,1.17v0.33h-3.1
		c-0.14-0.36-0.22-0.87-0.25-1.53s-0.03-1.15-0.03-1.45v-1.08c0-1.01-0.24-1.75-0.72-2.23s-1.29-0.71-2.43-0.71H1245.402z"/>
	<path fill="#191919" d="M1243.072,104.204l-10.31,27.52h-4.21l11.87-30.19h2.71L1243.072,104.204L1243.072,104.204z
		 M1251.172,120.544v3.28h-17.49v-3.28H1251.172z M1251.702,131.724l-10.33-27.52l-0.06-2.67h2.72l11.91,30.19h-4.23H1251.702z"/>
	<path fill="#191919" d="M1263.462,112.814v18.91h-3.96v-22.44h3.85L1263.462,112.814z M1270.692,109.164l-0.02,3.57
		c-0.33-0.07-0.64-0.11-0.93-0.14c-0.29-0.02-0.62-0.03-0.99-0.03c-0.91,0-1.72,0.14-2.42,0.41c-0.7,0.28-1.29,0.66-1.77,1.16
		s-0.87,1.09-1.14,1.77c-0.28,0.68-0.46,1.44-0.54,2.25l-1.11,0.62c0-1.35,0.14-2.63,0.42-3.82s0.71-2.24,1.29-3.16
		c0.58-0.92,1.33-1.64,2.23-2.16s1.99-0.78,3.24-0.78c0.29,0,0.61,0.03,0.98,0.09s0.63,0.13,0.77,0.2L1270.692,109.164z"/>
	<path fill="#191919" d="M1283.202,128.984c0.94,0,1.81-0.19,2.61-0.56c0.8-0.37,1.45-0.89,1.97-1.55c0.51-0.66,0.8-1.41,0.88-2.25
		h3.76c-0.07,1.33-0.53,2.56-1.38,3.7s-1.96,2.06-3.33,2.76s-2.87,1.05-4.51,1.05c-1.74,0-3.25-0.3-4.54-0.89s-2.36-1.41-3.21-2.45
		s-1.48-2.23-1.9-3.58s-0.63-2.77-0.63-4.28v-0.87c0-1.5,0.21-2.93,0.63-4.28s1.05-2.54,1.9-3.58s1.92-1.85,3.21-2.45
		c1.29-0.59,2.8-0.89,4.54-0.89s3.39,0.36,4.75,1.07s2.42,1.68,3.2,2.9s1.2,2.61,1.27,4.16h-3.76c-0.07-0.93-0.34-1.76-0.8-2.51
		s-1.09-1.34-1.88-1.79s-1.72-0.68-2.77-0.68c-1.21,0-2.23,0.23-3.05,0.69s-1.47,1.09-1.94,1.87c-0.48,0.78-0.82,1.64-1.03,2.59
		s-0.31,1.91-0.31,2.89v0.87c0,0.98,0.1,1.95,0.3,2.9c0.2,0.95,0.54,1.82,1.02,2.59c0.48,0.78,1.12,1.39,1.94,1.86
		s1.84,0.69,3.07,0.69L1283.202,128.984z"/>
	<path fill="#191919" d="M1300.822,99.874v31.85h-3.96v-31.85H1300.822z M1299.882,119.654l-1.65-0.06
		c0.01-1.53,0.25-2.95,0.71-4.26s1.1-2.44,1.92-3.41c0.83-0.97,1.81-1.72,2.96-2.25c1.15-0.53,2.42-0.8,3.82-0.8
		c1.14,0,2.17,0.15,3.08,0.45c0.91,0.3,1.69,0.77,2.34,1.42s1.14,1.49,1.49,2.52c0.34,1.03,0.51,2.28,0.51,3.76v14.7h-3.98v-14.74
		c0-1.17-0.18-2.12-0.53-2.83s-0.88-1.23-1.56-1.56s-1.53-0.49-2.52-0.49s-1.88,0.2-2.68,0.6s-1.5,0.95-2.07,1.66
		c-0.58,0.7-1.03,1.51-1.35,2.42s-0.48,1.86-0.48,2.87L1299.882,119.654z"/>
	<path fill="#191919" d="M1321.002,103.334c0-0.62,0.19-1.15,0.59-1.58c0.39-0.43,0.97-0.64,1.74-0.64s1.34,0.21,1.74,0.64
		c0.41,0.43,0.61,0.95,0.61,1.58s-0.2,1.1-0.61,1.52s-0.99,0.63-1.74,0.63s-1.35-0.21-1.74-0.63S1321.002,103.924,1321.002,103.334z
		 M1325.282,109.284v22.44h-3.98v-22.44H1325.282z"/>
	<path fill="#191919" d="M1341.322,109.284v2.95h-12.51v-2.95H1341.322z M1333.042,103.834h3.96v22.33c0,0.76,0.12,1.34,0.36,1.72
		c0.24,0.39,0.56,0.64,0.94,0.77c0.38,0.13,0.8,0.19,1.24,0.19c0.33,0,0.68-0.03,1.04-0.09s0.64-0.11,0.82-0.16l0.02,3.13
		c-0.31,0.1-0.72,0.19-1.23,0.28s-1.12,0.14-1.83,0.14c-0.97,0-1.86-0.19-2.67-0.56s-1.46-1-1.94-1.88s-0.72-2.06-0.72-3.56v-22.31
		L1333.042,103.834z"/>
	<path fill="#191919" d="M1355.562,132.134c-1.61,0-3.07-0.27-4.37-0.8c-1.31-0.53-2.43-1.28-3.36-2.25
		c-0.93-0.97-1.65-2.11-2.15-3.44s-0.75-2.78-0.75-4.35v-0.87c0-1.83,0.28-3.45,0.83-4.88s1.31-2.64,2.27-3.64s2.04-1.75,3.25-2.26
		s2.47-0.77,3.76-0.77c1.65,0,3.08,0.28,4.29,0.83c1.21,0.55,2.19,1.33,2.96,2.31s1.34,2.15,1.71,3.48s0.56,2.79,0.56,4.36v1.72
		h-17.28v-3.13h13.32v-0.29c-0.06-1-0.27-1.96-0.63-2.9c-0.36-0.94-0.94-1.71-1.72-2.32c-0.79-0.61-1.85-0.91-3.21-0.91
		c-0.9,0-1.72,0.18-2.48,0.55c-0.75,0.37-1.4,0.91-1.94,1.63c-0.54,0.72-0.96,1.6-1.26,2.63c-0.3,1.04-0.45,2.23-0.45,3.59v0.87
		c0,1.06,0.15,2.06,0.46,3c0.31,0.93,0.76,1.75,1.35,2.46s1.31,1.26,2.16,1.66c0.85,0.4,1.81,0.6,2.9,0.6c1.4,0,2.58-0.28,3.55-0.83
		c0.97-0.55,1.82-1.29,2.54-2.22l2.39,1.85c-0.5,0.73-1.13,1.43-1.9,2.09s-1.71,1.2-2.83,1.62c-1.12,0.41-2.44,0.62-3.97,0.62
		L1355.562,132.134z"/>
	<path fill="#191919" d="M1378.442,128.984c0.94,0,1.81-0.19,2.61-0.56c0.8-0.37,1.45-0.89,1.97-1.55c0.51-0.66,0.8-1.41,0.88-2.25
		h3.76c-0.07,1.33-0.53,2.56-1.38,3.7s-1.96,2.06-3.33,2.76s-2.87,1.05-4.51,1.05c-1.74,0-3.25-0.3-4.54-0.89s-2.36-1.41-3.21-2.45
		s-1.48-2.23-1.9-3.58s-0.63-2.77-0.63-4.28v-0.87c0-1.5,0.21-2.93,0.63-4.28s1.05-2.54,1.9-3.58s1.92-1.85,3.21-2.45
		c1.29-0.59,2.8-0.89,4.54-0.89s3.39,0.36,4.75,1.07s2.42,1.68,3.2,2.9s1.2,2.61,1.27,4.16h-3.76c-0.07-0.93-0.34-1.76-0.8-2.51
		s-1.09-1.34-1.88-1.79s-1.72-0.68-2.77-0.68c-1.21,0-2.23,0.23-3.05,0.69s-1.47,1.09-1.94,1.87c-0.48,0.78-0.82,1.64-1.03,2.59
		s-0.31,1.91-0.31,2.89v0.87c0,0.98,0.1,1.95,0.3,2.9c0.2,0.95,0.54,1.82,1.02,2.59c0.48,0.78,1.12,1.39,1.94,1.86
		s1.84,0.69,3.07,0.69L1378.442,128.984z"/>
	<path fill="#191919" d="M1401.792,109.284v2.95h-12.51v-2.95H1401.792z M1393.512,103.834h3.96v22.33c0,0.76,0.12,1.34,0.36,1.72
		c0.24,0.39,0.56,0.64,0.94,0.77c0.38,0.13,0.8,0.19,1.24,0.19c0.33,0,0.68-0.03,1.04-0.09s0.64-0.11,0.82-0.16l0.02,3.13
		c-0.31,0.1-0.72,0.19-1.23,0.28s-1.12,0.14-1.83,0.14c-0.97,0-1.86-0.19-2.67-0.56s-1.46-1-1.94-1.88s-0.72-2.06-0.72-3.56v-22.31
		L1393.512,103.834z"/>
	<path fill="#191919" d="M1421.332,121.814l1.65-0.04c0,1.49-0.16,2.87-0.48,4.14s-0.84,2.36-1.55,3.29
		c-0.71,0.93-1.65,1.65-2.8,2.17s-2.56,0.78-4.21,0.78c-1.13,0-2.16-0.16-3.09-0.48s-1.73-0.81-2.4-1.47s-1.19-1.53-1.55-2.59
		s-0.55-2.34-0.55-3.84v-14.48h3.96v14.52c0,1.01,0.12,1.84,0.35,2.5c0.24,0.66,0.56,1.17,0.96,1.56c0.41,0.38,0.86,0.65,1.37,0.8
		c0.51,0.15,1.03,0.23,1.57,0.23c1.68,0,3.02-0.31,4-0.94s1.69-1.48,2.13-2.55c0.43-1.07,0.65-2.26,0.65-3.58L1421.332,121.814z
		 M1420.582,126.534v-17.25h3.98v22.44h-3.78l-0.19-5.18L1420.582,126.534z"/>
	<path fill="#191919" d="M1434.522,112.814v18.91h-3.96v-22.44h3.85L1434.522,112.814z M1441.752,109.164l-0.02,3.57
		c-0.33-0.07-0.64-0.11-0.93-0.14c-0.29-0.02-0.62-0.03-0.99-0.03c-0.91,0-1.72,0.14-2.42,0.41c-0.7,0.28-1.29,0.66-1.77,1.16
		s-0.87,1.09-1.14,1.77c-0.28,0.68-0.46,1.44-0.54,2.25l-1.11,0.62c0-1.35,0.14-2.63,0.42-3.82s0.71-2.24,1.29-3.16
		c0.58-0.92,1.33-1.64,2.23-2.16s1.99-0.78,3.24-0.78c0.29,0,0.61,0.03,0.98,0.09s0.63,0.13,0.77,0.2L1441.752,109.164z"/>
	<path fill="#191919" d="M1454.602,132.134c-1.61,0-3.07-0.27-4.37-0.8c-1.31-0.53-2.43-1.28-3.36-2.25
		c-0.93-0.97-1.65-2.11-2.15-3.44s-0.75-2.78-0.75-4.35v-0.87c0-1.83,0.28-3.45,0.83-4.88s1.31-2.64,2.27-3.64s2.04-1.75,3.25-2.26
		s2.47-0.77,3.76-0.77c1.65,0,3.08,0.28,4.29,0.83c1.21,0.55,2.19,1.33,2.96,2.31s1.34,2.15,1.71,3.48s0.56,2.79,0.56,4.36v1.72
		h-17.28v-3.13h13.32v-0.29c-0.06-1-0.27-1.96-0.63-2.9c-0.36-0.94-0.94-1.71-1.72-2.32c-0.79-0.61-1.85-0.91-3.21-0.91
		c-0.9,0-1.72,0.18-2.48,0.55c-0.75,0.37-1.4,0.91-1.94,1.63c-0.54,0.72-0.96,1.6-1.26,2.63c-0.3,1.04-0.45,2.23-0.45,3.59v0.87
		c0,1.06,0.15,2.06,0.46,3c0.31,0.93,0.76,1.75,1.35,2.46s1.31,1.26,2.16,1.66c0.85,0.4,1.81,0.6,2.9,0.6c1.4,0,2.58-0.28,3.55-0.83
		c0.97-0.55,1.82-1.29,2.54-2.22l2.39,1.85c-0.5,0.73-1.13,1.43-1.9,2.09s-1.71,1.2-2.83,1.62c-1.12,0.41-2.44,0.62-3.97,0.62
		L1454.602,132.134z"/>
	<path fill="#191919" d="M1240.542,174.604c-1.61,0-3.07-0.27-4.37-0.8c-1.31-0.53-2.43-1.28-3.36-2.25
		c-0.93-0.97-1.65-2.11-2.15-3.44c-0.5-1.33-0.75-2.78-0.75-4.35v-0.87c0-1.83,0.28-3.45,0.83-4.88s1.31-2.64,2.27-3.64
		s2.04-1.75,3.25-2.26s2.47-0.77,3.76-0.77c1.65,0,3.08,0.28,4.29,0.83c1.21,0.55,2.19,1.33,2.96,2.31s1.34,2.15,1.71,3.48
		c0.37,1.33,0.56,2.79,0.56,4.36v1.72h-17.28v-3.13h13.32v-0.29c-0.06-1-0.27-1.96-0.63-2.9s-0.94-1.71-1.72-2.32
		c-0.79-0.61-1.85-0.91-3.21-0.91c-0.9,0-1.72,0.18-2.48,0.55c-0.75,0.37-1.4,0.91-1.94,1.63c-0.54,0.72-0.96,1.6-1.26,2.63
		c-0.3,1.04-0.45,2.23-0.45,3.59v0.87c0,1.06,0.15,2.06,0.46,3c0.31,0.93,0.76,1.75,1.35,2.46s1.31,1.26,2.16,1.66s1.81,0.6,2.9,0.6
		c1.4,0,2.58-0.28,3.55-0.83c0.97-0.55,1.82-1.29,2.54-2.22l2.39,1.85c-0.5,0.73-1.13,1.43-1.9,2.09s-1.71,1.2-2.83,1.62
		c-1.12,0.41-2.44,0.62-3.97,0.62L1240.542,174.604z"/>
	<path fill="#191919" d="M1263.852,151.754v2.95h-12.51v-2.95H1263.852z M1255.572,146.304h3.96v22.33c0,0.76,0.12,1.34,0.36,1.72
		c0.24,0.39,0.56,0.64,0.94,0.77c0.38,0.13,0.8,0.19,1.24,0.19c0.33,0,0.68-0.03,1.04-0.09s0.64-0.11,0.82-0.16l0.02,3.13
		c-0.31,0.1-0.72,0.19-1.23,0.28s-1.12,0.14-1.83,0.14c-0.97,0-1.86-0.19-2.67-0.56s-1.46-1-1.94-1.88s-0.72-2.06-0.72-3.56v-22.31
		H1255.572z"/>
	<path fill="#191919" d="M1278.372,163.224v-0.44c0-1.71,0.22-3.27,0.65-4.67c0.43-1.4,1.06-2.61,1.86-3.62
		c0.81-1.01,1.77-1.79,2.89-2.33s2.37-0.82,3.75-0.82c1.45,0,2.73,0.25,3.82,0.74s2.02,1.2,2.78,2.14c0.76,0.93,1.36,2.06,1.81,3.37
		c0.45,1.31,0.75,2.8,0.92,4.46v1.91c-0.16,1.65-0.46,3.13-0.91,4.44c-0.45,1.31-1.06,2.43-1.82,3.36
		c-0.76,0.93-1.69,1.63-2.79,2.12c-1.1,0.49-2.38,0.74-3.85,0.74c-1.35,0-2.59-0.28-3.71-0.85s-2.08-1.36-2.89-2.38
		c-0.8-1.02-1.43-2.23-1.86-3.62c-0.44-1.39-0.65-2.9-0.65-4.53L1278.372,163.224z M1282.342,162.784v0.44
		c0,1.12,0.12,2.17,0.35,3.15s0.6,1.85,1.1,2.59c0.5,0.75,1.13,1.33,1.9,1.75s1.69,0.63,2.76,0.63c1.31,0,2.39-0.27,3.24-0.81
		s1.53-1.25,2.04-2.14c0.51-0.88,0.91-1.84,1.2-2.88v-5c-0.17-0.76-0.42-1.5-0.74-2.21s-0.74-1.35-1.24-1.91
		c-0.51-0.56-1.13-1.01-1.86-1.34c-0.74-0.33-1.6-0.5-2.6-0.5c-1.08,0-2.01,0.22-2.79,0.65s-1.41,1.03-1.91,1.78
		s-0.87,1.62-1.1,2.61c-0.24,0.99-0.35,2.04-0.35,3.16V162.784z M1293.932,169.834v-27.5h3.98v31.85h-3.63l-0.34-4.35H1293.932z"/>
	<path fill="#191919" d="M1313.652,174.604c-1.61,0-3.07-0.27-4.37-0.8c-1.31-0.53-2.43-1.28-3.36-2.25
		c-0.93-0.97-1.65-2.11-2.15-3.44c-0.5-1.33-0.75-2.78-0.75-4.35v-0.87c0-1.83,0.28-3.45,0.83-4.88s1.31-2.64,2.27-3.64
		s2.04-1.75,3.25-2.26s2.47-0.77,3.76-0.77c1.65,0,3.08,0.28,4.29,0.83c1.21,0.55,2.19,1.33,2.96,2.31s1.34,2.15,1.71,3.48
		c0.37,1.33,0.56,2.79,0.56,4.36v1.72h-17.28v-3.13h13.32v-0.29c-0.06-1-0.27-1.96-0.63-2.9s-0.94-1.71-1.72-2.32
		c-0.79-0.61-1.85-0.91-3.21-0.91c-0.9,0-1.72,0.18-2.48,0.55c-0.75,0.37-1.4,0.91-1.94,1.63c-0.54,0.72-0.96,1.6-1.26,2.63
		c-0.3,1.04-0.45,2.23-0.45,3.59v0.87c0,1.06,0.15,2.06,0.46,3c0.31,0.93,0.76,1.75,1.35,2.46s1.31,1.26,2.16,1.66s1.81,0.6,2.9,0.6
		c1.4,0,2.58-0.28,3.55-0.83c0.97-0.55,1.82-1.29,2.54-2.22l2.39,1.85c-0.5,0.73-1.13,1.43-1.9,2.09s-1.71,1.2-2.83,1.62
		c-1.12,0.41-2.44,0.62-3.97,0.62L1313.652,174.604z"/>
	<path fill="#191919" d="M1340.742,168.244c0-0.55-0.13-1.07-0.37-1.54c-0.25-0.48-0.76-0.91-1.52-1.31
		c-0.76-0.39-1.91-0.74-3.43-1.03c-1.28-0.26-2.44-0.57-3.47-0.93s-1.91-0.79-2.63-1.31s-1.27-1.11-1.66-1.81
		c-0.38-0.69-0.58-1.5-0.58-2.43s0.2-1.72,0.61-2.51s0.98-1.49,1.73-2.09c0.75-0.61,1.65-1.09,2.7-1.43
		c1.05-0.35,2.23-0.52,3.53-0.52c1.85,0,3.44,0.32,4.75,0.95c1.31,0.64,2.32,1.48,3.01,2.54c0.7,1.06,1.05,2.23,1.05,3.51h-3.96
		c0-0.62-0.19-1.23-0.57-1.81c-0.38-0.59-0.93-1.07-1.65-1.46s-1.6-0.58-2.64-0.58c-1.1,0-1.99,0.16-2.66,0.49
		c-0.68,0.32-1.17,0.74-1.47,1.23s-0.46,1.02-0.46,1.58c0,0.41,0.08,0.79,0.23,1.11c0.15,0.33,0.42,0.62,0.8,0.89
		c0.39,0.27,0.93,0.52,1.63,0.76s1.59,0.47,2.67,0.7c1.9,0.41,3.46,0.91,4.68,1.49c1.23,0.58,2.14,1.29,2.74,2.14s0.9,1.87,0.9,3.07
		c0,0.98-0.21,1.88-0.63,2.7s-1.03,1.52-1.82,2.1c-0.79,0.59-1.73,1.04-2.82,1.37s-2.31,0.49-3.67,0.49c-2.04,0-3.76-0.35-5.17-1.06
		s-2.48-1.62-3.21-2.74s-1.09-2.3-1.09-3.55h3.98c0.06,1.05,0.37,1.88,0.94,2.5s1.27,1.05,2.1,1.31s1.65,0.38,2.46,0.38
		c1.08,0,1.99-0.14,2.73-0.41c0.73-0.28,1.29-0.66,1.68-1.14c0.38-0.48,0.58-1.04,0.58-1.66L1340.742,168.244z"/>
	<path fill="#191919" d="M1349.892,145.804c0-0.62,0.19-1.15,0.59-1.58c0.39-0.43,0.97-0.64,1.74-0.64s1.34,0.21,1.74,0.64
		c0.41,0.43,0.61,0.95,0.61,1.58s-0.2,1.1-0.61,1.52s-0.99,0.63-1.74,0.63s-1.35-0.21-1.74-0.63S1349.892,146.394,1349.892,145.804z
		 M1354.172,151.754v22.44h-3.98v-22.44H1354.172z"/>
	<path fill="#191919" d="M1359.582,163.224v-0.44c0-1.71,0.21-3.27,0.63-4.67s1.03-2.61,1.82-3.62s1.75-1.79,2.88-2.33
		c1.12-0.55,2.39-0.82,3.81-0.82s2.73,0.25,3.82,0.74s2.02,1.2,2.78,2.14c0.76,0.93,1.36,2.06,1.81,3.37
		c0.45,1.31,0.75,2.8,0.92,4.46v1.91c-0.16,1.65-0.46,3.13-0.91,4.44c-0.45,1.31-1.06,2.43-1.82,3.36
		c-0.76,0.93-1.69,1.63-2.79,2.12c-1.1,0.49-2.38,0.74-3.85,0.74c-1.38,0-2.63-0.28-3.75-0.85s-2.08-1.36-2.87-2.38
		c-0.8-1.02-1.41-2.23-1.83-3.62s-0.63-2.9-0.63-4.53L1359.582,163.224z M1375.512,151.754h3.59v21.96c0,1.98-0.41,3.66-1.24,5.06
		s-1.98,2.46-3.45,3.18s-3.18,1.09-5.1,1.09c-0.8,0-1.74-0.12-2.81-0.36c-1.08-0.24-2.13-0.65-3.16-1.22s-1.9-1.34-2.6-2.31
		l2.07-2.28c0.97,1.13,1.98,1.92,3.05,2.36c1.06,0.44,2.11,0.66,3.15,0.66c1.25,0,2.34-0.23,3.25-0.68
		c0.91-0.46,1.62-1.13,2.13-2.02s0.76-1.99,0.76-3.29v-17.21L1375.512,151.754z M1363.532,162.784v0.44c0,1.12,0.12,2.17,0.35,3.15
		s0.6,1.85,1.09,2.59c0.49,0.75,1.12,1.33,1.89,1.75s1.69,0.63,2.76,0.63c1.31,0,2.39-0.27,3.25-0.81c0.85-0.54,1.54-1.25,2.04-2.14
		c0.51-0.88,0.9-1.84,1.19-2.88v-5c-0.16-0.76-0.4-1.5-0.72-2.21s-0.74-1.35-1.24-1.91c-0.51-0.56-1.13-1.01-1.87-1.34
		s-1.61-0.5-2.61-0.5c-1.08,0-2.01,0.22-2.79,0.65s-1.41,1.03-1.9,1.78s-0.86,1.62-1.09,2.61c-0.24,0.99-0.35,2.04-0.35,3.16
		V162.784z"/>
	<path fill="#191919" d="M1389.062,156.544v17.65h-3.96v-22.44h3.74l0.21,4.79H1389.062z M1388.122,162.124l-1.65-0.06
		c0.01-1.53,0.25-2.95,0.71-4.26s1.1-2.44,1.92-3.41c0.83-0.97,1.81-1.72,2.96-2.25c1.15-0.53,2.42-0.8,3.82-0.8
		c1.14,0,2.17,0.15,3.08,0.45c0.91,0.3,1.69,0.77,2.34,1.42s1.14,1.49,1.49,2.52c0.34,1.03,0.51,2.28,0.51,3.76v14.7h-3.98v-14.74
		c0-1.17-0.18-2.12-0.53-2.83s-0.88-1.23-1.56-1.56s-1.53-0.49-2.52-0.49s-1.88,0.2-2.68,0.6s-1.5,0.95-2.07,1.66
		c-0.58,0.7-1.03,1.51-1.35,2.42s-0.48,1.86-0.48,2.87L1388.122,162.124z"/>
</g>
<path fill="#191919" d="M451.132,110.014c0-31.86-25.91-57.77-57.77-57.77s-57.25,25.45-57.73,56.9h-0.13v63.32
	c0,2.78,2.26,5.04,5.04,5.04h31.19c2.78,0,5.04-2.26,5.04-5.04v-62.44h0.09c0-9.1,7.4-16.5,16.5-16.5s15.94,6.94,16.41,15.62h-0.03
	v63.32c0,2.78,2.26,5.04,5.04,5.04h31.19c2.78,0,5.04-2.26,5.04-5.04v-62.44h0.12V110.014z"/>
<path fill="#191919" d="M689.672,55.074h-31.19c-2.78,0-5.04,2.26-5.04,5.04v62.79h-0.09c0,9.2-7.49,16.69-16.69,16.69
	s-16.13-7.02-16.6-15.81h0.03v-63.67c0-2.78-2.26-5.04-5.04-5.04h-31.19c-2.78,0-5.04,2.26-5.04,5.04v62.79h-0.12
	c0,31.96,26,57.96,57.96,57.96s57.44-25.53,57.92-57.08h0.13v-63.67C694.712,57.334,692.452,55.074,689.672,55.074L689.672,55.074z"
	/>
<path fill="#191919" d="M1179.632,53.454h-31.19c-2.78,0-5.04,2.26-5.04,5.04v62.79h-0.09c0,9.2-7.49,16.69-16.69,16.69
	s-16.13-7.02-16.6-15.81h0.03v-63.67c0-2.78-2.26-5.04-5.04-5.04h-31.19c-2.78,0-5.04,2.26-5.04,5.04v62.79h-0.12
	c0,31.96,26,57.96,57.96,57.96s57.44-25.53,57.92-57.08h0.13v-63.67C1184.672,55.714,1182.412,53.454,1179.632,53.454
	L1179.632,53.454z"/>
<path fill="#191919" d="M525.522,178.604c-43.18,7.14-80.17-29.84-73.03-73.03c4.33-26.16,25.43-47.26,51.59-51.59
	c43.18-7.14,80.17,29.84,73.03,73.03C572.782,153.174,551.682,174.274,525.522,178.604L525.522,178.604z M519.102,94.784
	c-15.42-2.95-28.75,10.39-25.81,25.81c1.64,8.57,8.65,15.58,17.21,17.21c15.42,2.95,28.75-10.39,25.81-25.81
	C534.672,103.424,527.662,96.414,519.102,94.784z"/>
<path fill="#191919" d="M199.862,137.984c-5.11,0.59-10.73-0.55-16.26-4.12c-1.47-0.95-2.77-2.25-3.73-3.73
	c-14.27-22.02,9.3-45.64,31.33-31.47c1.53,0.99,2.89,2.34,3.87,3.87c5.46,8.49,5.29,17.19,1.77,23.87c-1.18,2.24,0.47,4.91,3,4.91
	h36.24c1.62,0,3.07-1.15,3.37-2.75c9-47.56-35.68-88.19-83.93-71.76c-15.79,5.38-32.44,22.18-37.71,38.01
	c-14.56,43.68,17.54,84.31,59.08,84.67l63.43,0.1c1.88,0,3.4-1.52,3.4-3.39v-34.5c0-1.87-1.51-3.38-3.37-3.39l-60.48-0.31
	L199.862,137.984z"/>
<path fill="#191919" d="M92.682,114.244c0.59,5.11-0.55,10.73-4.12,16.26c-0.95,1.47-2.25,2.77-3.73,3.73
	c-22.02,14.27-45.64-9.3-31.47-31.33c0.99-1.53,2.34-2.89,3.87-3.87c8.49-5.46,17.19-5.29,23.87-1.77c2.24,1.18,4.91-0.47,4.91-3
	v-36.24c0-1.62-1.15-3.07-2.75-3.37c-47.56-9-88.19,35.68-71.76,83.93c5.38,15.79,22.18,32.44,38.01,37.71
	c43.68,14.56,84.31-17.54,84.67-59.08l0.1-101.37c0-1.88-1.52-3.4-3.39-3.4h-34.5c-1.87,0-3.38,1.51-3.39,3.37l-0.31,98.42
	L92.682,114.244z"/>
<path fill="#191919" d="M878.092,137.984c-5.11,0.59-10.73-0.55-16.26-4.12c-1.47-0.95-2.77-2.25-3.73-3.73
	c-14.27-22.02,9.3-45.64,31.33-31.47c1.53,0.99,2.89,2.34,3.87,3.87c5.46,8.49,5.29,17.19,1.77,23.87c-1.18,2.24,0.47,4.91,3,4.91
	h36.24c1.62,0,3.07-1.15,3.37-2.75c9-47.56-35.68-88.19-83.93-71.76c-15.79,5.38-32.44,22.18-37.71,38.01
	c-14.56,43.68,17.54,84.31,59.08,84.67l63.43,0.1c1.88,0,3.4-1.52,3.4-3.39v-34.5c0-1.87-1.51-3.38-3.37-3.39l-60.48-0.31
	L878.092,137.984z"/>
<path fill="#191919" d="M1024.322,116.404c0.59-5.11-0.55-10.73-4.12-16.26c-0.95-1.47-2.25-2.77-3.73-3.73
	c-22.02-14.27-45.64,9.3-31.47,31.33c0.99,1.53,2.34,2.89,3.87,3.87c8.49,5.46,17.19,5.29,23.87,1.77c2.24-1.18,4.91,0.47,4.91,3
	v36.24c0,1.62-1.15,3.07-2.75,3.37c-47.56,9-88.19-35.68-71.76-83.93c5.38-15.79,22.18-32.44,38.01-37.71
	c43.68-14.56,84.31,17.54,84.67,59.08l0.1,63.43c0,1.88-1.52,3.4-3.39,3.4h-34.5c-1.87,0-3.38-1.51-3.39-3.37l-0.31-60.48
	L1024.322,116.404z"/>
<path fill="#191919" d="M780.222,57.074l-18.8,72l-18.89-72.01c-0.58-2.22-2.58-3.76-4.88-3.76h-38.41c-3.45,0-5.88,3.39-4.77,6.66
	l32.68,96.03c5.32,14.58,18.79,24,34.31,24h0.03c15.54-0.01,29-9.46,34.3-24.06l32.68-95.97c1.11-3.27-1.32-6.67-4.77-6.67h-38.6
	c-2.29,0-4.3,1.55-4.88,3.77V57.074z"/>
</svg>
