<?xml version="1.0" encoding="UTF-8"?>
<svg id="Calque_1" data-name="Calque 1" xmlns="http://www.w3.org/2000/svg" viewBox="0 0 1370.22 393.63">
  <defs>
    <style>
      .cls-1 {
        fill: #fff;
      }
    </style>
  </defs>
  <path class="cls-1" d="M523.14,209.08c0-31.86-25.91-57.77-57.77-57.77s-57.25,25.45-57.73,56.9h-.13v63.32c0,2.78,2.26,5.04,5.04,5.04h31.19c2.78,0,5.04-2.26,5.04-5.04v-62.44h.09c0-9.1,7.4-16.5,16.5-16.5s15.94,6.94,16.41,15.62h-.03v63.32c0,2.78,2.26,5.04,5.04,5.04h31.19c2.78,0,5.04-2.26,5.04-5.04v-62.44h.12Z"/>
  <path class="cls-1" d="M761.68,154.14h-31.19c-2.78,0-5.04,2.26-5.04,5.04v62.79h-.09c0,9.2-7.49,16.69-16.69,16.69s-16.13-7.02-16.6-15.81h.03v-63.67c0-2.78-2.26-5.04-5.04-5.04h-31.19c-2.78,0-5.04,2.26-5.04,5.04v62.79h-.12c0,31.96,26,57.96,57.96,57.96s57.44-25.53,57.92-57.08h.13v-63.67c0-2.78-2.26-5.04-5.04-5.04Z"/>
  <path class="cls-1" d="M1251.64,152.52h-31.19c-2.78,0-5.04,2.26-5.04,5.04v62.79h-.09c0,9.2-7.49,16.69-16.69,16.69s-16.13-7.02-16.6-15.81h.03v-63.67c0-2.78-2.26-5.04-5.04-5.04h-31.19c-2.78,0-5.04,2.26-5.04,5.04v62.79h-.12c0,31.96,26,57.96,57.96,57.96s57.44-25.53,57.92-57.08h.13v-63.67c0-2.78-2.26-5.04-5.04-5.04Z"/>
  <path class="cls-1" d="M597.53,277.67c-43.18,7.14-80.17-29.84-73.03-73.03,4.33-26.16,25.43-47.26,51.59-51.59,43.18-7.14,80.17,29.84,73.03,73.03-4.33,26.16-25.43,47.26-51.59,51.59ZM591.11,193.85c-15.42-2.95-28.75,10.39-25.81,25.81,1.64,8.57,8.65,15.58,17.21,17.21,15.42,2.95,28.75-10.39,25.81-25.81-1.64-8.57-8.65-15.58-17.21-17.21Z"/>
  <path class="cls-1" d="M271.87,237.05c-5.11.59-10.73-.55-16.26-4.12-1.47-.95-2.77-2.25-3.73-3.73-14.27-22.02,9.3-45.64,31.33-31.47,1.53.99,2.89,2.34,3.87,3.87,5.46,8.49,5.29,17.19,1.77,23.87-1.18,2.24.47,4.91,3,4.91h36.24c1.62,0,3.07-1.15,3.37-2.75,9-47.56-35.68-88.19-83.93-71.76-15.79,5.38-32.44,22.18-37.71,38.01-14.56,43.68,17.54,84.31,59.08,84.67l63.43.1c1.88,0,3.4-1.52,3.4-3.39v-34.5c0-1.87-1.51-3.38-3.37-3.39l-60.48-.31Z"/>
  <path class="cls-1" d="M164.69,213.31c.59,5.11-.55,10.73-4.12,16.26-.95,1.47-2.25,2.77-3.73,3.73-22.02,14.27-45.64-9.3-31.47-31.33.99-1.53,2.34-2.89,3.87-3.87,8.49-5.46,17.19-5.29,23.87-1.77,2.24,1.18,4.91-.47,4.91-3v-36.24c0-1.62-1.15-3.07-2.75-3.37-47.56-9-88.19,35.68-71.76,83.93,5.38,15.79,22.18,32.44,38.01,37.71,43.68,14.56,84.31-17.54,84.67-59.08l.1-101.37c0-1.88-1.52-3.4-3.39-3.4h-34.5c-1.87,0-3.38,1.51-3.39,3.37l-.31,98.42Z"/>
  <path class="cls-1" d="M950.1,237.05c-5.11.59-10.73-.55-16.26-4.12-1.47-.95-2.77-2.25-3.73-3.73-14.27-22.02,9.3-45.64,31.33-31.47,1.53.99,2.89,2.34,3.87,3.87,5.46,8.49,5.29,17.19,1.77,23.87-1.18,2.24.47,4.91,3,4.91h36.24c1.62,0,3.07-1.15,3.37-2.75,9-47.56-35.68-88.19-83.93-71.76-15.79,5.38-32.44,22.18-37.71,38.01-14.56,43.68,17.54,84.31,59.08,84.67l63.43.1c1.88,0,3.4-1.52,3.4-3.39v-34.5c0-1.87-1.51-3.38-3.37-3.39l-60.48-.31Z"/>
  <path class="cls-1" d="M1096.33,215.47c.59-5.11-.55-10.73-4.12-16.26-.95-1.47-2.25-2.77-3.73-3.73-22.02-14.27-45.64,9.3-31.47,31.33.99,1.53,2.34,2.89,3.87,3.87,8.49,5.46,17.19,5.29,23.87,1.77,2.24-1.18,4.91.47,4.91,3v36.24c0,1.62-1.15,3.07-2.75,3.37-47.56,9-88.19-35.68-71.76-83.93,5.38-15.79,22.18-32.44,38.01-37.71,43.68-14.56,84.31,17.54,84.67,59.08l.1,63.43c0,1.88-1.52,3.4-3.39,3.4h-34.5c-1.87,0-3.38-1.51-3.39-3.37l-.31-60.48Z"/>
  <path class="cls-1" d="M852.23,156.14l-18.8,72-18.89-72.01c-.58-2.22-2.58-3.76-4.88-3.76h-38.41c-3.45,0-5.88,3.39-4.77,6.66l32.68,96.03c5.32,14.58,18.79,24,34.31,24h.03c15.54-.01,29-9.46,34.3-24.06l32.68-95.97c1.11-3.27-1.32-6.67-4.77-6.67h-38.6c-2.29,0-4.3,1.55-4.88,3.77Z"/>
</svg>